<svg id="svg" xmlns="http://www.w3.org/2000/svg" xmlns:xlink="http://www.w3.org/1999/xlink" width="400" height="70.81604426002767" viewBox="0, 0, 400,70.81604426002767"><g id="svgg"><path id="path0" d="M4.167 0.167 C 4.167 0.258,3.942 0.333,3.667 0.333 C 3.386 0.333,3.018 0.482,2.827 0.673 C 2.641 0.859,2.421 0.971,2.339 0.920 C 2.258 0.870,2.142 0.981,2.083 1.167 C 2.024 1.353,1.906 1.461,1.820 1.409 C 1.734 1.356,1.612 1.448,1.549 1.614 C 1.485 1.781,1.298 2.062,1.133 2.240 C 0.968 2.417,0.833 2.661,0.833 2.781 C 0.833 2.902,0.721 3.000,0.583 3.000 C 0.428 3.000,0.333 3.157,0.333 3.417 C 0.333 3.646,0.258 3.833,0.167 3.833 C 0.056 3.833,0.000 14.444,0.000 35.333 C 0.000 56.222,0.056 66.833,0.167 66.833 C 0.258 66.833,0.333 67.021,0.333 67.250 C 0.333 67.492,0.429 67.667,0.562 67.667 C 0.689 67.667,0.837 67.892,0.892 68.167 C 0.950 68.460,1.097 68.667,1.246 68.667 C 1.389 68.667,1.500 68.812,1.500 69.000 C 1.500 69.185,1.611 69.333,1.750 69.333 C 1.887 69.333,2.000 69.401,2.000 69.484 C 2.000 69.566,2.225 69.712,2.500 69.808 C 2.775 69.904,3.000 70.062,3.000 70.158 C 3.000 70.254,3.262 70.333,3.583 70.333 C 3.904 70.333,4.167 70.408,4.167 70.500 C 4.167 70.611,14.694 70.667,35.417 70.667 C 54.800 70.667,66.667 70.607,66.667 70.510 C 66.667 70.424,66.948 70.330,67.292 70.302 C 67.635 70.273,67.903 70.172,67.887 70.076 C 67.870 69.981,68.015 69.891,68.209 69.876 C 68.403 69.861,68.626 69.733,68.705 69.591 C 68.785 69.449,68.959 69.333,69.092 69.333 C 69.225 69.333,69.343 69.258,69.354 69.167 C 69.366 69.075,69.388 68.906,69.403 68.792 C 69.419 68.677,69.524 68.603,69.636 68.626 C 69.749 68.650,69.886 68.444,69.941 68.168 C 69.997 67.892,70.145 67.667,70.271 67.667 C 70.422 67.667,70.500 67.467,70.500 67.083 C 70.500 66.611,70.563 66.500,70.833 66.500 C 71.165 66.500,71.167 66.390,71.164 35.708 C 71.162 4.777,71.154 4.167,70.731 4.167 C 70.578 4.167,70.500 3.969,70.500 3.583 C 70.500 3.176,70.425 3.000,70.250 3.000 C 70.112 3.000,70.000 2.884,70.000 2.743 C 70.000 2.455,69.830 2.217,69.039 1.398 C 68.542 0.883,68.311 0.758,67.958 0.814 C 67.890 0.824,67.852 0.740,67.875 0.625 C 67.901 0.495,67.683 0.397,67.292 0.365 C 66.948 0.336,66.667 0.243,66.667 0.157 C 66.667 0.059,54.800 0.000,35.417 0.000 C 14.694 0.000,4.167 0.056,4.167 0.167 M40.786 13.928 C 40.989 14.059,41.401 14.167,41.702 14.168 C 42.004 14.168,42.451 14.274,42.697 14.402 C 42.943 14.530,43.369 14.685,43.644 14.745 C 43.919 14.805,44.233 14.962,44.342 15.094 C 44.451 15.226,44.721 15.333,44.942 15.333 C 45.163 15.333,45.387 15.446,45.440 15.583 C 45.492 15.721,45.662 15.833,45.817 15.833 C 45.972 15.833,46.245 15.944,46.424 16.080 C 46.603 16.215,47.163 16.639,47.667 17.021 C 48.869 17.931,49.992 19.029,49.997 19.297 C 49.998 19.414,50.112 19.554,50.250 19.606 C 50.387 19.659,50.500 19.809,50.500 19.940 C 50.500 20.070,50.608 20.219,50.740 20.269 C 50.872 20.320,51.027 20.575,51.084 20.836 C 51.141 21.097,51.296 21.400,51.427 21.509 C 51.559 21.618,51.667 21.854,51.667 22.032 C 51.667 22.211,51.779 22.470,51.917 22.607 C 52.054 22.745,52.167 23.007,52.167 23.190 C 52.167 23.374,52.271 23.628,52.399 23.756 C 52.529 23.886,52.681 24.525,52.742 25.203 C 52.803 25.870,52.930 26.616,53.024 26.860 C 53.209 27.339,52.922 27.959,52.250 28.536 C 51.788 28.932,47.995 28.971,47.607 28.583 C 47.470 28.446,47.294 28.333,47.218 28.333 C 46.983 28.333,46.330 26.782,46.332 26.229 C 46.333 25.942,46.221 25.614,46.083 25.500 C 45.946 25.386,45.833 25.189,45.833 25.062 C 45.833 24.936,45.683 24.552,45.500 24.210 C 45.317 23.868,45.167 23.493,45.167 23.377 C 45.167 23.262,45.097 23.167,45.011 23.167 C 44.926 23.167,44.804 23.003,44.740 22.802 C 44.608 22.385,42.864 20.667,42.572 20.667 C 42.466 20.667,42.188 20.517,41.955 20.333 C 41.721 20.150,41.388 20.000,41.214 20.000 C 41.040 20.000,40.751 19.890,40.574 19.755 C 40.396 19.621,39.912 19.508,39.500 19.504 C 39.087 19.501,38.535 19.386,38.273 19.249 C 37.633 18.915,34.672 18.913,33.750 19.245 C 33.383 19.377,32.795 19.489,32.442 19.493 C 32.090 19.497,31.602 19.604,31.359 19.731 C 31.116 19.858,30.729 20.050,30.500 20.156 C 29.687 20.534,29.243 20.818,28.678 21.323 C 28.364 21.604,28.045 21.833,27.970 21.833 C 27.895 21.833,27.833 21.908,27.833 21.999 C 27.833 22.089,27.571 22.508,27.250 22.928 C 26.929 23.348,26.667 23.790,26.667 23.909 C 26.667 24.028,26.554 24.219,26.417 24.333 C 26.279 24.447,26.167 24.705,26.167 24.905 C 26.167 25.106,26.057 25.415,25.922 25.593 C 25.787 25.771,25.675 26.226,25.672 26.605 C 25.669 26.983,25.547 27.579,25.401 27.928 C 25.007 28.872,25.009 42.214,25.404 43.313 C 25.549 43.714,25.669 44.314,25.672 44.646 C 25.675 44.978,25.787 45.396,25.922 45.574 C 26.057 45.751,26.167 46.061,26.167 46.261 C 26.167 46.462,26.272 46.713,26.400 46.820 C 26.529 46.926,26.685 47.216,26.747 47.464 C 26.809 47.711,26.919 47.952,26.992 47.998 C 27.065 48.045,27.314 48.364,27.545 48.707 C 27.777 49.050,28.332 49.612,28.778 49.957 C 29.516 50.527,29.864 50.721,31.417 51.427 C 33.207 52.242,39.580 52.222,40.513 51.399 C 40.658 51.271,41.014 51.167,41.305 51.167 C 41.595 51.167,41.833 51.089,41.833 50.995 C 41.833 50.900,41.965 50.774,42.125 50.714 C 42.807 50.461,44.667 48.824,44.667 48.478 C 44.667 48.411,44.760 48.257,44.875 48.134 C 45.078 47.917,45.263 47.559,45.984 45.989 C 46.176 45.571,46.333 44.998,46.333 44.718 C 46.333 44.437,46.446 44.114,46.583 44.000 C 46.721 43.886,46.833 43.662,46.833 43.502 C 46.833 42.394,51.129 41.773,52.233 42.722 C 52.872 43.270,53.184 43.932,53.015 44.381 C 52.939 44.584,52.824 45.327,52.758 46.032 C 52.687 46.810,52.547 47.392,52.403 47.511 C 52.273 47.619,52.167 47.877,52.167 48.083 C 52.167 48.290,52.054 48.553,51.917 48.667 C 51.779 48.781,51.667 49.055,51.667 49.276 C 51.667 49.496,51.554 49.720,51.417 49.773 C 51.279 49.826,51.167 49.997,51.167 50.154 C 51.167 50.782,48.808 53.565,47.743 54.193 C 47.426 54.380,47.167 54.601,47.167 54.683 C 47.167 54.766,47.063 54.833,46.937 54.833 C 46.811 54.833,46.614 54.946,46.500 55.083 C 46.386 55.221,46.168 55.333,46.017 55.333 C 45.865 55.333,45.612 55.483,45.455 55.667 C 45.298 55.850,45.014 56.000,44.823 56.000 C 44.632 56.000,44.364 56.112,44.226 56.250 C 44.089 56.387,43.813 56.502,43.613 56.505 C 43.413 56.508,43.104 56.621,42.926 56.755 C 42.749 56.890,42.390 57.000,42.129 57.000 C 41.869 57.000,41.377 57.128,41.036 57.284 C 39.984 57.767,32.388 57.815,31.198 57.346 C 30.716 57.156,30.076 57.000,29.776 57.000 C 29.476 57.000,29.085 56.890,28.907 56.755 C 28.729 56.621,28.424 56.508,28.229 56.505 C 28.034 56.502,27.781 56.387,27.667 56.250 C 27.553 56.112,27.363 56.000,27.245 56.000 C 26.932 56.000,25.333 55.144,25.333 54.976 C 25.333 54.898,25.256 54.833,25.161 54.833 C 25.066 54.833,24.785 54.627,24.536 54.375 C 24.287 54.123,23.873 53.781,23.616 53.615 C 23.359 53.450,23.106 53.203,23.054 53.068 C 22.965 52.835,22.558 52.322,21.708 51.371 C 21.502 51.140,21.333 50.859,21.333 50.746 C 21.333 50.633,21.221 50.447,21.083 50.333 C 20.946 50.219,20.833 49.956,20.833 49.747 C 20.833 49.539,20.721 49.326,20.583 49.273 C 20.446 49.220,20.333 48.996,20.333 48.776 C 20.333 48.555,20.223 48.282,20.088 48.170 C 19.953 48.058,19.796 47.693,19.740 47.358 C 19.683 47.024,19.531 46.514,19.402 46.225 C 19.273 45.936,19.167 45.463,19.167 45.173 C 19.167 44.883,19.051 44.291,18.909 43.858 C 18.586 42.870,18.610 27.560,18.936 27.150 C 19.038 27.022,19.164 26.480,19.217 25.947 C 19.269 25.413,19.383 24.888,19.470 24.780 C 19.558 24.672,19.681 24.269,19.744 23.885 C 19.808 23.500,19.966 23.097,20.096 22.989 C 20.227 22.881,20.333 22.612,20.333 22.391 C 20.333 22.170,20.446 21.946,20.583 21.894 C 20.721 21.841,20.833 21.674,20.833 21.522 C 20.833 21.187,22.131 19.167,22.346 19.167 C 22.431 19.167,22.500 19.098,22.500 19.014 C 22.500 18.762,23.704 17.500,23.944 17.500 C 24.066 17.500,24.167 17.387,24.167 17.250 C 24.167 17.112,24.253 17.000,24.358 17.000 C 24.463 17.000,24.805 16.737,25.116 16.417 C 25.428 16.096,25.820 15.833,25.988 15.833 C 26.155 15.833,26.386 15.721,26.500 15.583 C 26.614 15.446,26.878 15.333,27.086 15.333 C 27.294 15.333,27.505 15.228,27.554 15.099 C 27.604 14.970,27.879 14.813,28.167 14.750 C 28.454 14.687,28.890 14.530,29.136 14.402 C 29.382 14.274,29.832 14.168,30.136 14.168 C 30.440 14.167,30.852 14.073,31.053 13.958 C 31.828 13.514,40.107 13.488,40.786 13.928 " stroke="none" fill="#249cec" fill-rule="evenodd"></path><path id="path1" d="M203.125 10.282 C 202.965 10.323,202.833 10.427,202.833 10.512 C 202.833 10.597,202.683 10.817,202.500 11.000 C 202.170 11.330,202.167 11.556,202.167 31.236 C 202.167 51.239,202.176 51.667,202.601 51.667 C 202.729 51.667,202.833 51.781,202.833 51.921 C 202.833 52.140,203.206 52.169,205.542 52.129 L 208.250 52.083 208.294 46.042 C 208.332 40.825,208.371 40.000,208.585 40.000 C 208.722 40.000,208.833 40.112,208.833 40.250 C 208.833 40.389,208.981 40.500,209.167 40.500 C 209.389 40.500,209.500 40.611,209.500 40.833 C 209.500 41.019,209.611 41.167,209.750 41.167 C 209.887 41.167,210.000 41.279,210.000 41.417 C 210.000 41.554,210.112 41.667,210.250 41.667 C 210.387 41.667,210.500 41.779,210.500 41.917 C 210.500 42.056,210.648 42.167,210.833 42.167 C 211.056 42.167,211.167 42.278,211.167 42.500 C 211.167 42.685,211.278 42.833,211.417 42.833 C 211.554 42.833,211.667 42.946,211.667 43.083 C 211.667 43.221,211.771 43.333,211.899 43.333 C 212.027 43.333,212.174 43.446,212.227 43.583 C 212.280 43.721,212.438 43.833,212.578 43.833 C 212.718 43.833,212.833 43.908,212.833 44.000 C 212.833 44.161,214.090 45.500,214.241 45.500 C 214.281 45.500,214.600 45.762,214.949 46.083 C 215.298 46.403,215.677 46.665,215.792 46.666 C 215.906 46.666,216.000 46.779,216.000 46.917 C 216.000 47.056,216.148 47.167,216.333 47.167 C 216.556 47.167,216.667 47.278,216.667 47.500 C 216.667 47.685,216.778 47.833,216.917 47.833 C 217.054 47.833,217.167 47.946,217.167 48.083 C 217.167 48.221,217.279 48.333,217.417 48.333 C 217.554 48.333,217.667 48.446,217.667 48.583 C 217.667 48.722,217.815 48.833,218.000 48.833 C 218.185 48.833,218.333 48.944,218.333 49.083 C 218.333 49.221,218.446 49.333,218.583 49.333 C 218.722 49.333,218.833 49.481,218.833 49.667 C 218.833 49.850,218.938 50.000,219.066 50.000 C 219.193 50.000,219.341 50.112,219.394 50.250 C 219.446 50.387,219.604 50.500,219.745 50.500 C 219.885 50.500,220.000 50.612,220.000 50.750 C 220.000 50.887,220.112 51.000,220.250 51.000 C 220.389 51.000,220.500 51.148,220.500 51.333 C 220.500 51.522,220.611 51.667,220.755 51.667 C 220.896 51.667,221.054 51.779,221.106 51.917 C 221.187 52.127,221.715 52.167,224.434 52.167 L 227.667 52.167 227.667 50.833 C 227.667 49.759,227.618 49.500,227.417 49.500 C 227.279 49.500,227.167 49.380,227.167 49.234 C 227.167 49.088,227.017 48.930,226.833 48.882 C 226.650 48.834,226.500 48.691,226.500 48.564 C 226.500 48.437,226.387 48.333,226.250 48.333 C 226.112 48.333,226.000 48.221,226.000 48.083 C 226.000 47.946,225.887 47.833,225.750 47.833 C 225.612 47.833,225.500 47.714,225.500 47.568 C 225.500 47.422,225.350 47.263,225.167 47.215 C 224.983 47.167,224.833 47.024,224.833 46.897 C 224.833 46.770,224.721 46.667,224.583 46.667 C 224.446 46.667,224.333 46.554,224.333 46.417 C 224.333 46.279,224.221 46.167,224.083 46.167 C 223.946 46.167,223.833 46.047,223.833 45.901 C 223.833 45.755,223.683 45.596,223.500 45.548 C 223.317 45.500,223.167 45.357,223.167 45.231 C 223.167 45.104,223.054 45.000,222.917 45.000 C 222.779 45.000,222.667 44.887,222.667 44.750 C 222.667 44.612,222.554 44.500,222.417 44.500 C 222.279 44.500,222.167 44.387,222.167 44.250 C 222.167 44.111,222.019 44.000,221.833 44.000 C 221.611 44.000,221.500 43.889,221.500 43.667 C 221.500 43.481,221.389 43.333,221.250 43.333 C 221.112 43.333,221.000 43.221,221.000 43.083 C 221.000 42.946,220.887 42.833,220.750 42.833 C 220.612 42.833,220.500 42.721,220.500 42.583 C 220.500 42.446,220.428 42.333,220.341 42.333 C 220.134 42.333,219.333 41.532,219.333 41.326 C 219.333 41.238,219.229 41.167,219.101 41.167 C 218.973 41.167,218.826 41.054,218.773 40.917 C 218.720 40.779,218.562 40.667,218.422 40.667 C 218.282 40.667,218.167 40.554,218.167 40.417 C 218.167 40.279,218.054 40.167,217.917 40.167 C 217.779 40.167,217.667 40.052,217.667 39.911 C 217.667 39.771,217.554 39.613,217.417 39.560 C 217.279 39.507,216.776 39.097,216.298 38.649 C 215.820 38.200,215.333 37.833,215.215 37.833 C 215.097 37.833,215.000 37.721,215.000 37.583 C 215.000 37.444,214.852 37.333,214.667 37.333 C 214.444 37.333,214.333 37.222,214.333 37.000 C 214.333 36.815,214.222 36.667,214.083 36.667 C 213.946 36.667,213.833 36.554,213.833 36.417 C 213.833 36.279,213.721 36.167,213.583 36.167 C 213.446 36.167,213.333 36.054,213.333 35.917 C 213.333 35.778,213.185 35.667,213.000 35.667 C 212.778 35.667,212.667 35.556,212.667 35.333 C 212.667 35.111,212.778 35.000,213.000 35.000 C 213.185 35.000,213.333 34.889,213.333 34.750 C 213.333 34.612,213.446 34.500,213.583 34.500 C 213.721 34.500,213.833 34.387,213.833 34.250 C 213.833 34.112,213.946 34.000,214.083 34.000 C 214.221 34.000,214.483 33.850,214.667 33.667 C 214.850 33.483,215.112 33.333,215.250 33.333 C 215.387 33.333,215.500 33.221,215.500 33.083 C 215.500 32.946,215.612 32.833,215.750 32.833 C 215.887 32.833,216.000 32.721,216.000 32.583 C 216.000 32.446,216.120 32.333,216.266 32.333 C 216.412 32.333,216.570 32.183,216.618 32.000 C 216.666 31.817,216.809 31.667,216.936 31.667 C 217.063 31.667,217.167 31.554,217.167 31.417 C 217.167 31.250,217.333 31.167,217.667 31.167 C 218.000 31.167,218.167 31.083,218.167 30.917 C 218.167 30.779,218.260 30.665,218.375 30.664 C 218.629 30.660,219.333 29.941,219.333 29.685 C 219.333 29.583,219.483 29.500,219.667 29.500 C 219.852 29.500,220.000 29.389,220.000 29.250 C 220.000 29.113,220.070 29.000,220.155 29.000 C 220.442 29.000,221.486 28.252,221.493 28.042 C 221.497 27.927,221.650 27.833,221.833 27.833 C 222.019 27.833,222.167 27.722,222.167 27.583 C 222.167 27.446,222.279 27.333,222.417 27.333 C 222.554 27.333,222.667 27.221,222.667 27.083 C 222.667 26.946,222.779 26.833,222.917 26.833 C 223.056 26.833,223.167 26.685,223.167 26.500 C 223.167 26.243,223.278 26.167,223.649 26.167 C 223.924 26.167,224.172 26.059,224.227 25.917 C 224.280 25.779,224.438 25.667,224.578 25.667 C 224.718 25.667,224.833 25.563,224.833 25.436 C 224.833 25.309,224.983 25.166,225.167 25.118 C 225.350 25.070,225.500 24.912,225.500 24.766 C 225.500 24.620,225.612 24.500,225.750 24.500 C 225.887 24.500,226.000 24.387,226.000 24.250 C 226.000 24.113,226.112 24.000,226.250 24.000 C 226.444 24.000,226.500 23.780,226.500 23.018 C 226.500 22.299,226.433 22.010,226.250 21.940 C 226.112 21.887,226.000 21.729,226.000 21.589 C 226.000 21.210,220.206 21.204,220.060 21.583 C 220.008 21.721,219.858 21.833,219.727 21.833 C 219.596 21.833,219.446 21.946,219.394 22.083 C 219.341 22.221,219.211 22.333,219.106 22.333 C 219.000 22.333,218.820 22.483,218.705 22.667 C 218.591 22.850,218.348 23.000,218.165 23.000 C 217.981 23.000,217.833 23.111,217.833 23.250 C 217.833 23.387,217.718 23.500,217.578 23.500 C 217.438 23.500,217.280 23.613,217.227 23.750 C 217.174 23.888,217.027 24.000,216.899 24.000 C 216.771 24.000,216.667 24.150,216.667 24.333 C 216.667 24.556,216.556 24.667,216.333 24.667 C 216.150 24.667,215.998 24.760,215.996 24.875 C 215.993 24.990,215.683 25.225,215.307 25.399 C 214.931 25.573,214.586 25.854,214.542 26.024 C 214.498 26.194,214.320 26.333,214.147 26.333 C 213.975 26.333,213.833 26.446,213.833 26.583 C 213.833 26.721,213.721 26.833,213.583 26.833 C 213.446 26.833,213.333 26.946,213.333 27.083 C 213.333 27.221,213.221 27.333,213.083 27.333 C 212.946 27.333,212.833 27.446,212.833 27.583 C 212.833 27.723,212.685 27.833,212.498 27.833 C 212.314 27.833,212.035 27.983,211.878 28.167 C 211.721 28.350,211.497 28.500,211.380 28.500 C 211.262 28.500,211.167 28.613,211.167 28.750 C 211.167 28.887,211.052 29.000,210.911 29.000 C 210.771 29.000,210.613 29.112,210.560 29.250 C 210.508 29.387,210.360 29.500,210.232 29.500 C 210.104 29.500,210.000 29.650,210.000 29.833 C 210.000 30.019,209.889 30.167,209.750 30.167 C 209.612 30.167,209.500 30.271,209.500 30.398 C 209.500 30.539,209.271 30.657,208.917 30.698 L 208.333 30.766 208.333 20.800 C 208.333 11.150,208.323 10.833,208.019 10.833 C 207.846 10.833,207.667 10.684,207.618 10.500 C 207.534 10.176,204.159 10.011,203.125 10.282 M266.500 10.500 C 266.500 10.722,266.389 10.833,266.167 10.833 C 265.978 10.833,265.833 10.944,265.833 11.089 C 265.833 11.229,265.721 11.387,265.583 11.440 C 265.369 11.522,265.333 12.234,265.333 16.434 L 265.333 21.333 262.833 21.333 C 260.722 21.333,260.333 21.372,260.333 21.583 C 260.333 21.721,260.221 21.833,260.083 21.833 C 259.874 21.833,259.833 22.185,259.833 24.000 C 259.833 25.815,259.874 26.167,260.083 26.167 C 260.221 26.167,260.333 26.271,260.333 26.399 C 260.333 26.771,260.729 26.833,263.097 26.833 L 265.333 26.833 265.333 34.896 C 265.333 41.860,265.367 42.987,265.583 43.167 C 265.773 43.324,265.833 43.753,265.833 44.953 C 265.833 46.391,265.863 46.539,266.167 46.618 C 266.434 46.688,266.500 46.846,266.500 47.418 C 266.500 47.898,266.582 48.162,266.750 48.227 C 266.887 48.280,267.000 48.438,267.000 48.578 C 267.000 48.718,267.112 48.833,267.250 48.833 C 267.418 48.833,267.500 49.002,267.500 49.349 C 267.500 49.724,267.591 49.888,267.833 49.952 C 268.017 50.000,268.167 50.143,268.167 50.269 C 268.167 50.396,268.271 50.500,268.399 50.500 C 268.527 50.500,268.674 50.613,268.727 50.750 C 268.780 50.888,269.008 51.000,269.234 51.000 C 269.498 51.000,269.682 51.119,269.750 51.333 C 269.825 51.569,270.002 51.667,270.356 51.667 C 270.632 51.667,270.970 51.779,271.107 51.917 C 271.465 52.275,280.167 52.294,280.167 51.936 C 280.167 51.809,280.317 51.666,280.500 51.618 C 280.806 51.538,280.833 51.392,280.831 49.807 C 280.828 47.638,280.760 47.380,280.150 47.246 C 279.884 47.188,279.667 47.034,279.667 46.903 C 279.667 46.708,279.173 46.667,276.851 46.667 C 274.502 46.667,274.020 46.625,273.940 46.417 C 273.887 46.279,273.654 46.167,273.422 46.167 C 273.111 46.167,273.000 46.079,273.000 45.833 C 273.000 45.648,272.889 45.500,272.750 45.500 C 272.576 45.500,272.500 45.325,272.500 44.929 C 272.500 44.614,272.387 44.245,272.250 44.107 C 272.034 43.891,272.000 42.689,272.000 35.345 L 272.000 26.833 275.583 26.833 C 278.944 26.833,279.187 26.813,279.500 26.500 C 279.683 26.317,279.908 26.167,280.000 26.167 C 280.103 26.167,280.167 25.333,280.167 24.000 C 280.167 22.185,280.126 21.833,279.917 21.833 C 279.779 21.833,279.667 21.721,279.667 21.583 C 279.667 21.368,279.130 21.333,275.833 21.333 L 272.000 21.333 272.000 16.583 C 272.000 12.056,271.984 11.818,271.667 11.500 C 271.483 11.317,271.333 11.092,271.333 11.000 C 271.333 10.908,271.230 10.833,271.103 10.833 C 270.976 10.833,270.833 10.683,270.785 10.500 C 270.704 10.189,270.558 10.167,268.599 10.167 C 266.611 10.167,266.500 10.184,266.500 10.500 M297.375 10.370 C 297.169 10.470,297.000 10.614,297.000 10.692 C 297.000 10.770,296.593 10.833,296.095 10.833 C 295.513 10.833,295.101 10.923,294.940 11.083 C 294.803 11.221,294.423 11.333,294.095 11.333 C 293.677 11.333,293.500 11.408,293.500 11.583 C 293.500 11.745,293.338 11.833,293.040 11.833 C 292.761 11.833,292.498 11.964,292.372 12.167 C 292.254 12.355,291.983 12.500,291.749 12.500 C 291.491 12.500,291.333 12.595,291.333 12.750 C 291.333 12.887,291.195 13.000,291.026 13.000 C 290.856 13.000,290.545 13.150,290.333 13.333 C 290.122 13.517,289.885 13.667,289.808 13.667 C 289.730 13.667,289.667 13.779,289.667 13.917 C 289.667 14.054,289.554 14.167,289.417 14.167 C 289.279 14.167,289.167 14.279,289.167 14.417 C 289.167 14.554,289.047 14.667,288.901 14.667 C 288.755 14.667,288.598 14.811,288.551 14.988 C 288.505 15.165,288.362 15.351,288.234 15.400 C 288.105 15.449,288.000 15.679,288.000 15.911 C 288.000 16.175,287.906 16.333,287.750 16.333 C 287.612 16.333,287.500 16.437,287.500 16.564 C 287.500 16.691,287.350 16.834,287.167 16.882 C 286.924 16.945,286.833 17.109,286.833 17.484 C 286.833 17.832,286.752 18.000,286.583 18.000 C 286.419 18.000,286.333 18.165,286.333 18.482 C 286.333 18.757,286.226 19.006,286.083 19.060 C 285.907 19.128,285.833 19.403,285.833 19.995 C 285.833 20.598,285.769 20.833,285.603 20.833 C 285.318 20.833,285.172 21.345,285.169 22.355 C 285.168 22.834,285.072 23.204,284.917 23.333 C 284.701 23.513,284.667 24.639,284.667 31.592 C 284.667 38.526,284.701 39.678,284.917 39.893 C 285.080 40.056,285.167 40.470,285.167 41.087 C 285.167 41.891,285.216 42.044,285.500 42.118 C 285.774 42.190,285.833 42.346,285.833 42.999 C 285.833 43.501,285.925 43.869,286.083 44.000 C 286.221 44.114,286.333 44.377,286.333 44.583 C 286.333 44.790,286.446 45.053,286.583 45.167 C 286.721 45.281,286.833 45.515,286.833 45.687 C 286.833 45.859,286.983 46.150,287.167 46.333 C 287.350 46.517,287.500 46.779,287.500 46.917 C 287.500 47.054,287.612 47.167,287.750 47.167 C 287.887 47.167,288.000 47.282,288.000 47.422 C 288.000 47.562,288.112 47.720,288.250 47.773 C 288.387 47.826,288.500 47.943,288.500 48.033 C 288.500 48.247,289.191 48.821,289.458 48.828 C 289.573 48.831,289.667 48.946,289.667 49.083 C 289.667 49.221,289.779 49.333,289.917 49.333 C 290.056 49.333,290.167 49.481,290.167 49.667 C 290.167 49.889,290.278 50.000,290.500 50.000 C 290.685 50.000,290.833 50.111,290.833 50.250 C 290.833 50.387,290.974 50.500,291.146 50.500 C 291.318 50.500,291.553 50.612,291.667 50.750 C 291.781 50.887,292.127 51.000,292.437 51.000 C 292.889 51.000,293.000 51.066,293.000 51.333 C 293.000 51.603,293.111 51.667,293.583 51.667 C 293.991 51.667,294.167 51.742,294.167 51.917 C 294.167 52.105,294.368 52.167,294.980 52.167 C 295.499 52.167,295.867 52.257,296.000 52.417 C 296.166 52.617,296.668 52.667,298.520 52.667 C 300.465 52.667,300.833 52.706,300.833 52.917 C 300.833 53.249,301.646 53.249,301.773 52.917 C 301.852 52.710,302.290 52.667,304.273 52.667 C 306.256 52.667,306.694 52.623,306.773 52.417 C 306.840 52.243,307.110 52.167,307.653 52.167 C 308.084 52.167,308.582 52.057,308.760 51.922 C 308.938 51.787,309.285 51.675,309.530 51.672 C 309.828 51.668,310.013 51.555,310.083 51.333 C 310.157 51.100,310.336 51.000,310.678 51.000 C 311.001 51.000,311.167 50.915,311.167 50.750 C 311.167 50.594,311.325 50.500,311.589 50.500 C 311.821 50.500,312.054 50.387,312.106 50.250 C 312.159 50.112,312.344 50.000,312.518 50.000 C 312.722 50.000,312.833 49.883,312.833 49.667 C 312.833 49.481,312.944 49.333,313.083 49.333 C 313.221 49.333,313.333 49.221,313.333 49.083 C 313.333 48.944,313.481 48.833,313.667 48.833 C 313.852 48.833,314.000 48.722,314.000 48.583 C 314.000 48.446,314.112 48.333,314.250 48.333 C 314.387 48.333,314.500 48.221,314.500 48.083 C 314.500 47.946,314.612 47.833,314.750 47.833 C 314.889 47.833,315.000 47.685,315.000 47.500 C 315.000 47.278,315.111 47.167,315.333 47.167 C 315.549 47.167,315.667 47.056,315.667 46.851 C 315.667 46.678,315.779 46.492,315.917 46.440 C 316.060 46.385,316.167 46.136,316.167 45.856 C 316.167 45.577,316.273 45.328,316.417 45.273 C 316.582 45.210,316.667 44.949,316.667 44.505 C 316.667 43.944,316.722 43.833,317.000 43.833 C 317.289 43.833,317.333 43.722,317.333 43.000 C 317.333 42.370,317.394 42.167,317.583 42.167 C 318.063 42.167,317.929 38.680,317.432 38.208 C 316.499 37.324,311.833 37.759,311.833 38.731 C 311.833 38.857,311.683 39.000,311.500 39.048 C 311.228 39.120,311.167 39.276,311.167 39.901 C 311.167 40.470,311.103 40.667,310.917 40.667 C 310.744 40.667,310.667 40.841,310.667 41.232 C 310.667 41.581,310.571 41.834,310.417 41.894 C 310.277 41.947,310.167 42.195,310.167 42.455 C 310.167 42.739,310.037 43.001,309.833 43.128 C 309.650 43.242,309.500 43.486,309.500 43.668 C 309.500 43.852,309.389 44.000,309.250 44.000 C 309.112 44.000,309.000 44.112,309.000 44.250 C 309.000 44.387,308.887 44.500,308.750 44.500 C 308.612 44.500,308.500 44.612,308.500 44.750 C 308.500 44.887,308.387 45.000,308.250 45.000 C 308.112 45.000,308.000 45.112,308.000 45.250 C 308.000 45.387,307.856 45.500,307.680 45.500 C 307.184 45.500,306.833 45.680,306.833 45.934 C 306.833 46.089,306.637 46.167,306.250 46.167 C 305.843 46.167,305.667 46.242,305.667 46.417 C 305.667 46.611,305.444 46.667,304.661 46.667 C 303.922 46.667,303.631 46.733,303.560 46.917 C 303.417 47.289,299.000 47.289,299.000 46.917 C 299.000 46.729,298.799 46.667,298.187 46.667 C 297.668 46.667,297.299 46.576,297.167 46.417 C 297.053 46.279,296.818 46.167,296.646 46.167 C 296.474 46.167,296.183 46.017,296.000 45.833 C 295.817 45.650,295.554 45.500,295.417 45.500 C 295.279 45.500,295.167 45.387,295.167 45.250 C 295.167 45.112,295.052 45.000,294.911 45.000 C 294.771 45.000,294.613 44.887,294.560 44.750 C 294.508 44.612,294.360 44.500,294.232 44.500 C 294.104 44.500,294.000 44.387,294.000 44.250 C 294.000 44.112,293.887 44.000,293.750 44.000 C 293.611 44.000,293.500 43.852,293.500 43.667 C 293.500 43.481,293.389 43.333,293.250 43.333 C 293.092 43.333,293.000 43.174,293.000 42.901 C 293.000 42.609,292.892 42.441,292.667 42.382 C 292.416 42.316,292.333 42.154,292.333 41.731 C 292.333 41.340,292.256 41.167,292.083 41.167 C 291.887 41.167,291.833 40.935,291.833 40.083 C 291.833 39.231,291.780 39.000,291.583 39.000 C 291.211 39.000,291.216 24.752,291.589 24.260 C 291.723 24.082,291.833 23.584,291.833 23.153 C 291.833 22.610,291.910 22.340,292.083 22.273 C 292.255 22.207,292.333 21.939,292.333 21.422 C 292.333 20.778,292.382 20.667,292.667 20.667 C 292.850 20.667,293.000 20.563,293.000 20.437 C 293.000 20.311,293.112 20.114,293.250 20.000 C 293.387 19.886,293.500 19.614,293.500 19.396 C 293.500 19.155,293.598 19.000,293.750 19.000 C 293.887 19.000,294.000 18.887,294.000 18.750 C 294.000 18.611,294.148 18.500,294.333 18.500 C 294.519 18.500,294.667 18.389,294.667 18.250 C 294.667 18.112,294.761 18.000,294.877 18.000 C 294.992 18.000,295.180 17.850,295.295 17.667 C 295.412 17.478,295.683 17.333,295.918 17.333 C 296.176 17.333,296.333 17.239,296.333 17.083 C 296.333 16.898,296.528 16.833,297.083 16.833 C 297.639 16.833,297.833 16.769,297.833 16.583 C 297.833 16.369,298.352 16.333,301.500 16.333 C 304.648 16.333,305.167 16.369,305.167 16.583 C 305.167 16.764,305.352 16.833,305.833 16.833 C 306.200 16.833,306.500 16.907,306.500 16.997 C 306.500 17.087,306.682 17.206,306.905 17.262 C 307.127 17.318,307.347 17.462,307.393 17.583 C 307.440 17.703,307.708 17.852,307.989 17.914 C 308.270 17.976,308.500 18.133,308.500 18.263 C 308.500 18.393,308.594 18.502,308.708 18.503 C 308.823 18.505,309.087 18.880,309.295 19.337 C 309.503 19.793,309.784 20.167,309.920 20.167 C 310.084 20.167,310.167 20.337,310.167 20.672 C 310.167 20.967,310.271 21.217,310.417 21.273 C 310.569 21.332,310.667 21.584,310.667 21.923 C 310.667 22.227,310.779 22.589,310.917 22.726 C 311.054 22.864,311.168 23.150,311.169 23.363 C 311.173 24.010,311.360 24.500,311.603 24.500 C 311.730 24.500,311.833 24.652,311.833 24.837 C 311.833 25.165,311.918 25.173,314.792 25.129 L 317.750 25.083 317.798 23.271 C 317.834 21.862,317.788 21.373,317.589 21.069 C 317.448 20.854,317.333 20.378,317.333 20.012 C 317.333 19.516,317.248 19.299,317.000 19.167 C 316.782 19.050,316.667 18.818,316.667 18.494 C 316.667 18.166,316.583 18.000,316.417 18.000 C 316.242 18.000,316.167 17.824,316.167 17.417 C 316.167 17.009,316.091 16.833,315.917 16.833 C 315.779 16.833,315.667 16.721,315.667 16.585 C 315.667 16.448,315.517 16.242,315.333 16.128 C 315.150 16.013,315.000 15.796,315.000 15.644 C 315.000 15.493,314.887 15.326,314.750 15.273 C 314.612 15.220,314.500 15.062,314.500 14.922 C 314.500 14.782,314.396 14.667,314.268 14.667 C 314.140 14.667,313.992 14.554,313.940 14.417 C 313.887 14.279,313.729 14.167,313.589 14.167 C 313.448 14.167,313.333 14.060,313.333 13.930 C 313.333 13.800,313.108 13.644,312.833 13.583 C 312.558 13.523,312.333 13.367,312.333 13.237 C 312.333 13.107,312.183 13.000,312.000 13.000 C 311.815 13.000,311.667 12.889,311.667 12.750 C 311.667 12.586,311.502 12.500,311.186 12.500 C 310.846 12.500,310.680 12.403,310.618 12.167 C 310.556 11.927,310.391 11.833,310.033 11.833 C 309.745 11.833,309.495 11.728,309.440 11.583 C 309.374 11.412,309.106 11.333,308.589 11.333 C 308.028 11.333,307.833 11.269,307.833 11.083 C 307.833 10.883,307.579 10.833,306.540 10.833 C 305.427 10.833,305.218 10.787,305.039 10.500 C 304.797 10.113,298.142 10.000,297.375 10.370 M103.833 11.064 C 103.833 11.191,103.683 11.334,103.500 11.382 C 103.116 11.482,102.958 51.132,103.339 51.844 C 103.499 52.143,103.713 52.167,106.250 52.167 C 108.787 52.167,109.001 52.143,109.161 51.844 C 109.276 51.630,109.333 47.006,109.333 38.011 C 109.333 26.112,109.363 24.500,109.583 24.500 C 109.751 24.500,109.833 24.667,109.833 25.005 C 109.833 25.301,109.937 25.550,110.083 25.606 C 110.221 25.659,110.333 25.845,110.333 26.019 C 110.333 26.194,110.483 26.465,110.667 26.622 C 110.852 26.780,111.000 27.114,111.000 27.370 C 111.000 27.671,111.088 27.833,111.250 27.833 C 111.402 27.833,111.500 27.988,111.500 28.230 C 111.500 28.448,111.608 28.715,111.739 28.824 C 111.871 28.934,112.027 29.243,112.086 29.512 C 112.145 29.780,112.300 30.000,112.430 30.000 C 112.582 30.000,112.667 30.180,112.667 30.505 C 112.667 30.801,112.771 31.050,112.917 31.106 C 113.054 31.159,113.167 31.339,113.167 31.506 C 113.167 31.673,113.279 31.922,113.417 32.060 C 113.554 32.197,113.667 32.427,113.667 32.571 C 113.667 32.715,113.817 32.983,114.000 33.167 C 114.183 33.350,114.333 33.603,114.333 33.730 C 114.333 33.856,114.446 34.053,114.583 34.167 C 114.721 34.281,114.833 34.515,114.833 34.687 C 114.833 34.859,114.946 35.000,115.083 35.000 C 115.252 35.000,115.333 35.168,115.333 35.516 C 115.333 35.891,115.424 36.055,115.667 36.118 C 115.917 36.184,116.000 36.346,116.000 36.769 C 116.000 37.160,116.077 37.333,116.250 37.333 C 116.417 37.333,116.500 37.500,116.500 37.833 C 116.500 38.167,116.583 38.333,116.750 38.333 C 116.918 38.333,117.000 38.502,117.000 38.849 C 117.000 39.224,117.091 39.388,117.333 39.452 C 117.569 39.513,117.667 39.679,117.667 40.019 C 117.667 40.335,117.752 40.500,117.917 40.500 C 118.091 40.500,118.167 40.676,118.167 41.083 C 118.167 41.491,118.242 41.667,118.417 41.667 C 118.554 41.667,118.667 41.779,118.667 41.917 C 118.667 42.072,118.824 42.167,119.082 42.167 C 119.317 42.167,119.588 42.312,119.705 42.500 C 120.058 43.065,123.500 42.973,123.500 42.399 C 123.500 42.271,123.650 42.167,123.833 42.167 C 124.017 42.167,124.167 42.063,124.167 41.936 C 124.167 41.809,124.317 41.666,124.500 41.618 C 124.691 41.568,124.833 41.391,124.833 41.203 C 124.833 41.022,124.946 40.781,125.083 40.667 C 125.221 40.553,125.333 40.365,125.333 40.250 C 125.333 40.135,125.446 39.947,125.583 39.833 C 125.721 39.719,125.833 39.448,125.833 39.230 C 125.833 39.012,125.912 38.833,126.009 38.833 C 126.105 38.833,126.291 38.576,126.423 38.261 C 126.554 37.947,126.738 37.642,126.831 37.585 C 126.924 37.527,127.000 37.305,127.000 37.091 C 127.000 36.877,127.112 36.659,127.250 36.606 C 127.388 36.554,127.500 36.318,127.500 36.083 C 127.500 35.848,127.612 35.613,127.750 35.560 C 127.889 35.507,128.000 35.259,128.000 35.002 C 128.000 34.679,128.101 34.512,128.333 34.452 C 128.576 34.388,128.667 34.224,128.667 33.849 C 128.667 33.502,128.748 33.333,128.917 33.333 C 129.083 33.333,129.167 33.167,129.167 32.833 C 129.167 32.500,129.250 32.333,129.417 32.333 C 129.591 32.333,129.667 32.157,129.667 31.750 C 129.667 31.278,129.730 31.167,130.000 31.167 C 130.257 31.167,130.333 31.056,130.333 30.684 C 130.333 30.410,130.441 30.161,130.583 30.106 C 130.729 30.050,130.833 29.801,130.833 29.505 C 130.833 29.167,130.916 29.000,131.083 29.000 C 131.258 29.000,131.333 28.824,131.333 28.417 C 131.333 27.944,131.397 27.833,131.667 27.833 C 131.923 27.833,132.000 27.722,132.000 27.351 C 132.000 27.076,132.107 26.828,132.250 26.773 C 132.396 26.717,132.500 26.467,132.500 26.172 C 132.500 25.834,132.583 25.667,132.750 25.667 C 132.900 25.667,133.000 25.513,133.000 25.283 C 133.000 24.904,133.275 24.500,133.533 24.500 C 133.607 24.500,133.667 30.613,133.667 38.083 C 133.667 50.046,133.696 51.667,133.917 51.667 C 134.054 51.667,134.167 51.779,134.167 51.917 C 134.167 52.129,134.583 52.167,136.917 52.167 L 139.667 52.167 139.667 51.571 C 139.667 51.244,139.779 50.864,139.917 50.726 C 140.136 50.507,140.167 48.155,140.167 31.589 C 140.167 14.955,140.137 12.691,139.917 12.606 C 139.760 12.546,139.667 12.291,139.667 11.922 C 139.667 11.510,139.592 11.333,139.417 11.333 C 139.279 11.333,139.167 11.221,139.167 11.083 C 139.167 10.872,138.778 10.833,136.667 10.833 C 134.556 10.833,134.167 10.872,134.167 11.083 C 134.167 11.221,134.054 11.333,133.917 11.333 C 133.779 11.333,133.667 11.438,133.667 11.566 C 133.667 11.693,133.554 11.841,133.417 11.894 C 133.274 11.949,133.167 12.197,133.167 12.475 C 133.167 12.821,133.070 12.986,132.833 13.048 C 132.591 13.112,132.500 13.276,132.500 13.651 C 132.500 13.998,132.418 14.167,132.250 14.167 C 132.083 14.167,132.000 14.333,132.000 14.667 C 132.000 15.000,131.917 15.167,131.750 15.167 C 131.575 15.167,131.500 15.343,131.500 15.750 C 131.500 16.222,131.437 16.333,131.167 16.333 C 130.897 16.333,130.833 16.444,130.833 16.917 C 130.833 17.324,130.758 17.500,130.583 17.500 C 130.446 17.500,130.333 17.641,130.333 17.813 C 130.333 17.985,130.221 18.219,130.083 18.333 C 129.946 18.447,129.833 18.682,129.833 18.854 C 129.833 19.026,129.755 19.167,129.658 19.167 C 129.562 19.167,129.375 19.424,129.244 19.739 C 129.113 20.053,128.929 20.358,128.836 20.415 C 128.743 20.473,128.667 20.703,128.667 20.927 C 128.667 21.177,128.571 21.333,128.417 21.333 C 128.255 21.333,128.167 21.496,128.167 21.793 C 128.167 22.073,128.036 22.335,127.833 22.461 C 127.645 22.579,127.500 22.850,127.500 23.085 C 127.500 23.343,127.405 23.500,127.250 23.500 C 127.075 23.500,127.000 23.676,127.000 24.083 C 127.000 24.491,126.925 24.667,126.750 24.667 C 126.586 24.667,126.500 24.831,126.500 25.147 C 126.500 25.488,126.403 25.653,126.167 25.715 C 125.924 25.778,125.833 25.942,125.833 26.318 C 125.833 26.665,125.752 26.833,125.583 26.833 C 125.417 26.833,125.333 27.000,125.333 27.333 C 125.333 27.667,125.250 27.833,125.083 27.833 C 124.931 27.833,124.833 27.988,124.833 28.230 C 124.833 28.448,124.722 28.718,124.586 28.831 C 124.450 28.944,124.169 29.385,123.961 29.810 C 123.753 30.235,123.490 30.643,123.375 30.717 C 123.260 30.790,123.167 31.071,123.167 31.342 C 123.167 31.655,123.081 31.833,122.930 31.833 C 122.800 31.833,122.643 32.063,122.581 32.345 C 122.519 32.626,122.363 32.896,122.234 32.946 C 122.105 32.995,122.000 33.244,122.000 33.498 C 122.000 33.976,121.700 34.161,121.125 34.038 C 120.927 33.996,120.833 33.817,120.833 33.483 C 120.833 33.198,120.728 32.949,120.583 32.894 C 120.441 32.839,120.333 32.590,120.333 32.316 C 120.333 31.998,120.248 31.833,120.083 31.833 C 119.915 31.833,119.833 31.665,119.833 31.318 C 119.833 30.942,119.743 30.778,119.500 30.715 C 119.263 30.653,119.167 30.488,119.167 30.142 C 119.167 29.864,119.060 29.615,118.917 29.560 C 118.774 29.506,118.667 29.257,118.667 28.982 C 118.667 28.665,118.581 28.500,118.417 28.500 C 118.251 28.500,118.167 28.335,118.167 28.011 C 118.167 27.669,118.067 27.491,117.833 27.417 C 117.600 27.343,117.500 27.164,117.500 26.822 C 117.500 26.499,117.415 26.333,117.250 26.333 C 117.096 26.333,117.000 26.177,117.000 25.927 C 117.000 25.703,116.924 25.473,116.831 25.415 C 116.738 25.358,116.554 25.053,116.423 24.739 C 116.291 24.424,116.105 24.167,116.009 24.167 C 115.912 24.167,115.833 24.022,115.833 23.845 C 115.833 23.668,115.721 23.411,115.583 23.274 C 115.446 23.136,115.333 22.868,115.333 22.679 C 115.333 22.483,115.225 22.333,115.083 22.333 C 114.917 22.333,114.833 22.167,114.833 21.833 C 114.833 21.444,114.759 21.333,114.500 21.333 C 114.230 21.333,114.167 21.222,114.167 20.750 C 114.167 20.343,114.091 20.167,113.917 20.167 C 113.749 20.167,113.667 19.999,113.667 19.661 C 113.667 19.366,113.563 19.116,113.417 19.060 C 113.274 19.006,113.167 18.757,113.167 18.482 C 113.167 18.165,113.081 18.000,112.917 18.000 C 112.779 18.000,112.667 17.856,112.667 17.680 C 112.667 17.184,112.487 16.833,112.232 16.833 C 112.085 16.833,112.000 16.650,112.000 16.333 C 112.000 16.000,111.917 15.833,111.750 15.833 C 111.583 15.833,111.500 15.666,111.500 15.328 C 111.500 15.050,111.396 14.783,111.269 14.734 C 111.141 14.685,110.993 14.425,110.940 14.156 C 110.883 13.871,110.735 13.667,110.587 13.667 C 110.416 13.667,110.333 13.503,110.333 13.161 C 110.333 12.866,110.229 12.616,110.083 12.560 C 109.946 12.508,109.833 12.322,109.833 12.149 C 109.833 11.975,109.760 11.833,109.671 11.833 C 109.582 11.833,109.392 11.608,109.250 11.333 L 108.991 10.833 106.412 10.833 C 104.328 10.833,103.833 10.878,103.833 11.064 M156.500 21.000 C 156.265 21.235,155.944 21.333,155.417 21.333 C 154.861 21.333,154.667 21.398,154.667 21.583 C 154.667 21.757,154.492 21.833,154.095 21.833 C 153.781 21.833,153.411 21.946,153.274 22.083 C 153.136 22.221,152.906 22.333,152.762 22.333 C 152.611 22.333,152.500 22.475,152.500 22.667 C 152.500 22.927,152.389 23.000,151.995 23.000 C 151.699 23.000,151.450 23.104,151.394 23.250 C 151.341 23.387,151.193 23.500,151.066 23.500 C 150.938 23.500,150.833 23.604,150.833 23.731 C 150.833 23.857,150.683 24.000,150.500 24.048 C 150.317 24.096,150.167 24.255,150.167 24.401 C 150.167 24.547,150.054 24.667,149.917 24.667 C 149.779 24.667,149.667 24.771,149.667 24.899 C 149.667 25.027,149.554 25.174,149.417 25.227 C 149.274 25.282,149.167 25.531,149.167 25.809 C 149.167 26.154,149.070 26.320,148.833 26.382 C 148.564 26.452,148.500 26.609,148.500 27.201 C 148.500 27.604,148.412 28.022,148.303 28.130 C 148.155 28.279,148.153 28.419,148.297 28.705 C 148.402 28.913,148.510 29.308,148.536 29.583 C 148.571 29.951,148.679 30.097,148.946 30.135 C 149.146 30.163,149.399 30.295,149.508 30.427 C 149.801 30.780,152.804 30.771,152.940 30.417 C 152.992 30.279,153.129 30.167,153.242 30.167 C 153.529 30.167,154.000 29.615,154.000 29.279 C 154.000 29.125,154.115 29.000,154.255 29.000 C 154.396 29.000,154.559 28.874,154.617 28.721 C 154.754 28.365,155.283 27.833,155.500 27.833 C 155.592 27.833,155.667 27.721,155.667 27.583 C 155.667 27.444,155.815 27.333,156.000 27.333 C 156.185 27.333,156.333 27.222,156.333 27.083 C 156.333 26.925,156.492 26.833,156.766 26.833 C 157.058 26.833,157.226 26.725,157.285 26.500 C 157.363 26.203,157.512 26.167,158.668 26.167 C 159.749 26.167,159.983 26.118,160.077 25.875 C 160.184 25.597,160.197 25.597,160.353 25.875 C 160.489 26.118,160.760 26.167,161.989 26.167 C 163.321 26.167,163.469 26.198,163.548 26.500 C 163.608 26.727,163.776 26.833,164.073 26.833 C 164.314 26.833,164.554 26.946,164.606 27.083 C 164.659 27.221,164.807 27.333,164.934 27.333 C 165.062 27.333,165.167 27.446,165.167 27.583 C 165.167 27.721,165.279 27.833,165.417 27.833 C 165.554 27.833,165.667 27.977,165.667 28.153 C 165.667 28.650,165.846 29.000,166.101 29.000 C 166.276 29.000,166.333 29.268,166.333 30.083 C 166.333 30.935,166.387 31.167,166.583 31.167 C 166.755 31.167,166.833 31.339,166.833 31.713 C 166.833 32.470,166.214 32.709,163.946 32.824 C 162.464 32.900,162.114 32.969,161.980 33.208 C 161.840 33.459,161.556 33.500,159.986 33.500 C 158.513 33.500,158.137 33.549,158.060 33.750 C 157.987 33.941,157.673 34.000,156.727 34.000 C 155.781 34.000,155.467 34.059,155.394 34.250 C 155.327 34.424,155.055 34.500,154.493 34.500 C 153.836 34.500,153.670 34.561,153.583 34.833 C 153.509 35.067,153.331 35.167,152.989 35.167 C 152.665 35.167,152.500 35.251,152.500 35.417 C 152.500 35.596,152.317 35.667,151.854 35.667 C 151.483 35.667,151.119 35.773,151.000 35.917 C 150.886 36.054,150.687 36.167,150.558 36.167 C 150.429 36.167,150.280 36.279,150.227 36.417 C 150.174 36.554,150.037 36.667,149.922 36.667 C 149.540 36.667,148.000 38.239,148.000 38.629 C 148.000 38.848,147.897 39.000,147.750 39.000 C 147.612 39.000,147.500 39.112,147.500 39.250 C 147.500 39.387,147.387 39.500,147.250 39.500 C 147.070 39.500,147.000 39.685,147.000 40.165 C 147.000 40.650,146.910 40.887,146.667 41.039 C 146.357 41.232,146.333 41.427,146.333 43.789 C 146.333 46.150,146.357 46.345,146.667 46.539 C 146.864 46.662,147.000 46.927,147.000 47.189 C 147.000 47.432,147.112 47.674,147.250 47.727 C 147.396 47.783,147.500 48.033,147.500 48.328 C 147.500 48.666,147.583 48.833,147.750 48.833 C 147.887 48.833,148.000 48.946,148.000 49.083 C 148.000 49.221,148.104 49.333,148.231 49.333 C 148.357 49.333,148.500 49.483,148.548 49.667 C 148.596 49.850,148.755 50.000,148.901 50.000 C 149.047 50.000,149.167 50.112,149.167 50.250 C 149.167 50.389,149.315 50.500,149.500 50.500 C 149.685 50.500,149.833 50.611,149.833 50.750 C 149.833 50.917,150.000 51.000,150.333 51.000 C 150.722 51.000,150.833 51.074,150.833 51.333 C 150.833 51.590,150.944 51.667,151.316 51.667 C 151.590 51.667,151.839 51.774,151.894 51.917 C 151.957 52.082,152.219 52.167,152.667 52.167 C 153.115 52.167,153.376 52.251,153.440 52.417 C 153.516 52.616,153.880 52.667,155.250 52.667 C 156.620 52.667,156.984 52.717,157.060 52.917 C 157.184 53.240,157.649 53.240,157.773 52.917 C 157.851 52.714,158.243 52.667,159.851 52.667 C 161.502 52.667,161.833 52.625,161.833 52.417 C 161.833 52.231,162.028 52.167,162.589 52.167 C 163.106 52.167,163.374 52.088,163.440 51.917 C 163.494 51.776,163.742 51.667,164.007 51.667 C 164.331 51.667,164.510 51.563,164.583 51.333 C 164.642 51.150,164.787 51.000,164.907 51.000 C 165.028 51.000,165.219 50.887,165.333 50.750 C 165.447 50.612,165.665 50.500,165.817 50.500 C 165.968 50.500,166.241 50.331,166.421 50.125 L 166.750 49.750 166.801 50.744 C 166.875 52.188,166.831 52.167,169.687 52.167 C 171.944 52.167,172.197 52.137,172.500 51.833 C 172.952 51.381,173.034 28.500,172.583 28.500 C 172.394 28.500,172.333 28.296,172.333 27.667 C 172.333 27.037,172.272 26.833,172.083 26.833 C 171.915 26.833,171.833 26.665,171.833 26.318 C 171.833 25.942,171.743 25.778,171.500 25.715 C 171.283 25.658,171.167 25.488,171.167 25.225 C 171.167 25.004,171.054 24.780,170.917 24.727 C 170.779 24.674,170.667 24.524,170.667 24.394 C 170.667 24.263,170.554 24.113,170.417 24.060 C 170.279 24.008,170.167 23.860,170.167 23.732 C 170.167 23.604,170.017 23.500,169.833 23.500 C 169.648 23.500,169.500 23.389,169.500 23.250 C 169.500 23.113,169.425 23.000,169.333 23.000 C 169.242 23.000,169.017 22.850,168.833 22.667 C 168.650 22.483,168.350 22.333,168.167 22.333 C 167.981 22.333,167.833 22.222,167.833 22.083 C 167.833 21.916,167.666 21.833,167.328 21.833 C 167.033 21.833,166.783 21.729,166.727 21.583 C 166.656 21.397,166.359 21.333,165.566 21.333 C 164.769 21.333,164.500 21.275,164.500 21.103 C 164.500 20.519,157.077 20.423,156.500 21.000 M239.625 20.782 C 239.465 20.823,239.333 20.965,239.333 21.096 C 239.333 21.267,239.120 21.333,238.571 21.333 C 238.116 21.333,237.709 21.434,237.560 21.583 C 237.422 21.721,237.137 21.833,236.925 21.833 C 236.714 21.833,236.447 21.946,236.333 22.083 C 236.219 22.221,235.994 22.333,235.832 22.333 C 235.671 22.333,235.500 22.483,235.452 22.667 C 235.392 22.893,235.224 23.000,234.927 23.000 C 234.686 23.000,234.446 23.113,234.394 23.250 C 234.341 23.387,234.193 23.500,234.066 23.500 C 233.938 23.500,233.833 23.604,233.833 23.731 C 233.833 23.857,233.683 24.000,233.500 24.048 C 233.317 24.096,233.167 24.255,233.167 24.401 C 233.167 24.547,233.054 24.667,232.917 24.667 C 232.779 24.667,232.667 24.771,232.667 24.899 C 232.667 25.027,232.554 25.174,232.417 25.227 C 232.279 25.280,232.167 25.426,232.167 25.552 C 232.167 25.678,232.017 25.917,231.833 26.083 C 231.650 26.249,231.500 26.478,231.500 26.591 C 231.500 26.705,231.387 26.841,231.250 26.894 C 231.112 26.946,231.000 27.171,231.000 27.394 C 231.000 27.616,230.887 27.841,230.750 27.894 C 230.593 27.954,230.500 28.209,230.500 28.578 C 230.500 28.968,230.422 29.167,230.269 29.167 C 229.997 29.167,229.839 29.672,229.836 30.547 C 229.834 30.952,229.744 31.211,229.583 31.273 C 229.213 31.415,229.208 41.937,229.578 42.426 C 229.713 42.604,229.825 43.068,229.828 43.457 C 229.832 43.980,229.920 44.218,230.167 44.372 C 230.369 44.498,230.500 44.761,230.500 45.040 C 230.500 45.338,230.588 45.500,230.750 45.500 C 230.925 45.500,231.000 45.676,231.000 46.083 C 231.000 46.491,231.075 46.667,231.250 46.667 C 231.405 46.667,231.500 46.824,231.500 47.082 C 231.500 47.317,231.645 47.588,231.833 47.705 C 232.017 47.820,232.167 48.008,232.167 48.123 C 232.167 48.239,232.271 48.333,232.399 48.333 C 232.526 48.333,232.676 48.513,232.731 48.733 C 232.793 48.981,233.022 49.200,233.332 49.308 C 233.608 49.404,233.833 49.599,233.833 49.741 C 233.833 49.884,233.946 50.000,234.083 50.000 C 234.221 50.000,234.333 50.112,234.333 50.250 C 234.333 50.387,234.446 50.500,234.583 50.500 C 234.721 50.500,234.833 50.612,234.833 50.750 C 234.833 50.925,235.009 51.000,235.417 51.000 C 235.889 51.000,236.000 51.063,236.000 51.333 C 236.000 51.603,236.111 51.667,236.583 51.667 C 236.991 51.667,237.167 51.742,237.167 51.917 C 237.167 52.106,237.370 52.167,238.000 52.167 C 238.630 52.167,238.833 52.228,238.833 52.417 C 238.833 52.624,239.155 52.667,240.732 52.667 C 242.266 52.667,242.649 52.715,242.727 52.917 C 242.780 53.054,242.978 53.167,243.167 53.167 C 243.356 53.167,243.554 53.054,243.606 52.917 C 243.684 52.715,244.067 52.667,245.601 52.667 C 247.178 52.667,247.500 52.624,247.500 52.417 C 247.500 52.228,247.704 52.167,248.333 52.167 C 248.963 52.167,249.167 52.106,249.167 51.917 C 249.167 51.743,249.341 51.667,249.736 51.667 C 250.471 51.667,250.833 51.523,250.833 51.232 C 250.833 51.104,250.986 51.000,251.172 51.000 C 251.358 51.000,251.554 50.887,251.606 50.750 C 251.659 50.612,251.882 50.500,252.101 50.500 C 252.345 50.500,252.500 50.403,252.500 50.250 C 252.500 50.112,252.620 50.000,252.766 50.000 C 252.912 50.000,253.069 49.857,253.114 49.682 C 253.160 49.507,253.322 49.318,253.474 49.261 C 254.185 48.996,254.673 48.615,254.764 48.253 C 254.819 48.036,254.969 47.817,255.098 47.767 C 255.228 47.718,255.333 47.562,255.333 47.422 C 255.333 47.282,255.446 47.167,255.583 47.167 C 255.788 47.167,255.833 46.880,255.833 45.583 C 255.833 44.346,255.783 44.000,255.603 44.000 C 255.476 44.000,255.333 43.850,255.285 43.667 C 255.203 43.353,255.058 43.333,252.833 43.333 C 250.609 43.333,250.464 43.353,250.382 43.667 C 250.334 43.850,250.191 44.000,250.064 44.000 C 249.937 44.000,249.833 44.112,249.833 44.250 C 249.833 44.387,249.721 44.500,249.583 44.500 C 249.446 44.500,249.333 44.612,249.333 44.750 C 249.333 44.887,249.250 45.000,249.148 45.000 C 248.892 45.000,248.173 45.704,248.170 45.958 C 248.168 46.073,248.026 46.167,247.854 46.167 C 247.682 46.167,247.447 46.279,247.333 46.417 C 247.219 46.554,246.985 46.667,246.813 46.667 C 246.641 46.667,246.500 46.779,246.500 46.917 C 246.500 47.090,246.326 47.167,245.930 47.167 C 245.196 47.167,244.833 47.310,244.833 47.601 C 244.833 47.784,244.480 47.833,243.167 47.833 C 241.853 47.833,241.500 47.784,241.500 47.601 C 241.500 47.310,241.137 47.167,240.403 47.167 C 240.008 47.167,239.833 47.090,239.833 46.917 C 239.833 46.779,239.718 46.667,239.578 46.667 C 239.438 46.667,239.280 46.554,239.227 46.417 C 239.174 46.279,239.027 46.167,238.899 46.167 C 238.771 46.167,238.667 46.054,238.667 45.917 C 238.667 45.779,238.585 45.667,238.485 45.667 C 238.257 45.667,237.680 44.986,237.672 44.708 C 237.669 44.594,237.517 44.500,237.333 44.500 C 237.088 44.500,237.000 44.389,237.000 44.078 C 237.000 43.846,236.887 43.613,236.750 43.560 C 236.607 43.505,236.500 43.256,236.500 42.977 C 236.500 42.697,236.393 42.449,236.250 42.394 C 236.075 42.326,236.000 42.053,236.000 41.482 C 236.000 40.778,235.955 40.667,235.667 40.667 C 235.378 40.667,235.333 40.556,235.333 39.833 L 235.333 39.000 245.849 39.000 C 256.224 39.000,256.366 38.996,256.452 38.667 C 256.500 38.483,256.643 38.333,256.769 38.333 C 257.126 38.333,257.107 32.531,256.750 32.394 C 256.568 32.324,256.500 32.038,256.500 31.341 C 256.500 30.597,256.426 30.318,256.167 30.083 C 255.943 29.881,255.833 29.570,255.833 29.141 C 255.833 28.682,255.762 28.500,255.583 28.500 C 255.409 28.500,255.333 28.324,255.333 27.917 C 255.333 27.509,255.258 27.333,255.083 27.333 C 254.925 27.333,254.833 27.174,254.833 26.901 C 254.833 26.609,254.725 26.441,254.500 26.382 C 254.316 26.333,254.167 26.154,254.167 25.981 C 254.167 25.808,254.054 25.667,253.917 25.667 C 253.750 25.667,253.667 25.500,253.667 25.167 C 253.667 24.862,253.580 24.667,253.446 24.667 C 253.324 24.667,253.006 24.404,252.738 24.083 C 252.471 23.762,252.166 23.500,252.060 23.500 C 251.955 23.500,251.826 23.387,251.773 23.250 C 251.720 23.113,251.496 23.000,251.275 23.000 C 251.012 23.000,250.842 22.884,250.785 22.667 C 250.726 22.441,250.558 22.333,250.266 22.333 C 249.992 22.333,249.833 22.241,249.833 22.083 C 249.833 21.909,249.657 21.833,249.250 21.833 C 248.843 21.833,248.667 21.758,248.667 21.583 C 248.667 21.397,248.471 21.333,247.901 21.333 C 247.388 21.333,246.996 21.223,246.712 21.000 C 246.304 20.679,240.680 20.506,239.625 20.782 M332.250 21.000 C 332.051 21.220,331.737 21.333,331.328 21.333 C 330.980 21.333,330.616 21.443,330.500 21.583 C 330.381 21.727,330.017 21.833,329.646 21.833 C 329.183 21.833,329.000 21.904,329.000 22.083 C 329.000 22.222,328.852 22.333,328.667 22.333 C 328.483 22.333,328.183 22.483,328.000 22.667 C 327.817 22.850,327.592 23.000,327.500 23.000 C 327.408 23.000,327.333 23.113,327.333 23.250 C 327.333 23.387,327.221 23.500,327.083 23.500 C 326.760 23.500,326.167 24.094,326.167 24.417 C 326.167 24.554,326.054 24.667,325.917 24.667 C 325.779 24.667,325.667 24.779,325.667 24.917 C 325.667 25.056,325.519 25.167,325.333 25.167 C 325.150 25.167,325.000 25.271,325.000 25.399 C 325.000 25.527,324.887 25.674,324.750 25.727 C 324.604 25.783,324.500 26.033,324.500 26.328 C 324.500 26.666,324.417 26.833,324.250 26.833 C 324.049 26.833,324.000 27.088,324.000 28.130 C 324.000 29.474,324.260 30.167,324.765 30.167 C 324.900 30.167,325.054 30.279,325.106 30.417 C 325.235 30.753,328.360 30.781,328.696 30.449 C 328.818 30.329,329.048 30.182,329.208 30.121 C 329.369 30.060,329.500 29.904,329.500 29.773 C 329.500 29.642,329.612 29.492,329.750 29.440 C 329.887 29.387,330.000 29.154,330.000 28.922 C 330.000 28.658,330.094 28.500,330.250 28.500 C 330.389 28.500,330.500 28.352,330.500 28.167 C 330.500 27.944,330.611 27.833,330.833 27.833 C 331.019 27.833,331.167 27.722,331.167 27.583 C 331.167 27.446,331.271 27.333,331.399 27.333 C 331.527 27.333,331.674 27.221,331.727 27.083 C 331.780 26.946,332.013 26.833,332.245 26.833 C 332.477 26.833,332.817 26.683,333.000 26.500 C 333.265 26.235,333.556 26.167,334.417 26.167 C 335.269 26.167,335.500 26.113,335.500 25.917 C 335.500 25.778,335.648 25.667,335.833 25.667 C 336.019 25.667,336.167 25.778,336.167 25.917 C 336.167 26.117,336.421 26.167,337.460 26.167 C 338.573 26.167,338.782 26.213,338.961 26.500 C 339.079 26.688,339.350 26.833,339.585 26.833 C 339.843 26.833,340.000 26.928,340.000 27.083 C 340.000 27.222,340.148 27.333,340.333 27.333 C 340.519 27.333,340.667 27.444,340.667 27.583 C 340.667 27.721,340.779 27.833,340.917 27.833 C 341.054 27.833,341.167 27.948,341.167 28.089 C 341.167 28.229,341.279 28.387,341.417 28.440 C 341.559 28.494,341.667 28.743,341.667 29.018 C 341.667 29.335,341.752 29.500,341.917 29.500 C 342.118 29.500,342.167 29.759,342.167 30.833 C 342.167 32.697,342.014 32.833,339.930 32.833 C 338.221 32.833,337.833 32.914,337.833 33.268 C 337.833 33.453,337.444 33.500,335.917 33.500 C 334.324 33.500,334.000 33.542,334.000 33.750 C 334.000 33.953,333.731 34.000,332.583 34.000 C 331.435 34.000,331.167 34.047,331.167 34.250 C 331.167 34.438,330.966 34.500,330.359 34.500 C 329.763 34.500,329.473 34.587,329.250 34.833 C 329.063 35.040,328.737 35.167,328.391 35.167 C 328.006 35.167,327.833 35.244,327.833 35.417 C 327.833 35.582,327.668 35.667,327.342 35.667 C 327.071 35.667,326.790 35.760,326.717 35.875 C 326.643 35.990,326.227 36.258,325.792 36.470 C 325.356 36.683,325.000 36.964,325.000 37.095 C 325.000 37.226,324.887 37.333,324.750 37.333 C 324.612 37.333,324.500 37.446,324.500 37.583 C 324.500 37.721,324.387 37.833,324.250 37.833 C 324.112 37.833,324.000 37.946,324.000 38.083 C 324.000 38.221,323.885 38.333,323.745 38.333 C 323.604 38.333,323.440 38.465,323.379 38.625 C 323.318 38.785,323.171 39.016,323.051 39.137 C 322.931 39.258,322.833 39.539,322.833 39.762 C 322.833 40.011,322.737 40.167,322.583 40.167 C 322.387 40.167,322.333 40.398,322.333 41.250 C 322.333 42.065,322.276 42.333,322.101 42.333 C 321.551 42.333,321.472 44.305,322.000 44.833 C 322.259 45.093,322.333 45.389,322.333 46.167 C 322.333 46.944,322.389 47.167,322.583 47.167 C 322.751 47.167,322.833 47.334,322.833 47.672 C 322.833 47.967,322.937 48.217,323.083 48.273 C 323.221 48.326,323.333 48.473,323.333 48.601 C 323.333 48.729,323.483 48.833,323.667 48.833 C 323.852 48.833,324.000 48.944,324.000 49.083 C 324.000 49.221,324.112 49.333,324.250 49.333 C 324.389 49.333,324.500 49.481,324.500 49.667 C 324.500 49.852,324.611 50.000,324.750 50.000 C 324.887 50.000,325.000 50.112,325.000 50.250 C 325.000 50.389,325.148 50.500,325.333 50.500 C 325.519 50.500,325.667 50.611,325.667 50.750 C 325.667 50.887,325.799 51.000,325.960 51.000 C 326.121 51.000,326.347 51.150,326.461 51.333 C 326.576 51.517,326.811 51.667,326.984 51.667 C 327.156 51.667,327.341 51.779,327.394 51.917 C 327.459 52.088,327.727 52.167,328.245 52.167 C 328.805 52.167,329.000 52.231,329.000 52.417 C 329.000 52.622,329.294 52.667,330.649 52.667 C 331.961 52.667,332.317 52.718,332.394 52.917 C 332.518 53.241,333.149 53.241,333.273 52.917 C 333.351 52.713,333.753 52.667,335.440 52.667 C 337.127 52.667,337.528 52.620,337.606 52.417 C 337.664 52.266,337.915 52.167,338.236 52.167 C 338.529 52.167,338.915 52.057,339.093 51.922 C 339.271 51.787,339.531 51.675,339.672 51.672 C 339.812 51.669,340.035 51.517,340.167 51.333 C 340.299 51.150,340.540 51.000,340.703 51.000 C 340.867 51.000,341.000 50.887,341.000 50.750 C 341.000 50.611,341.148 50.500,341.333 50.500 C 341.519 50.500,341.667 50.389,341.667 50.250 C 341.667 50.112,341.779 50.000,341.917 50.000 C 342.075 50.000,342.167 50.159,342.167 50.432 C 342.167 50.724,342.275 50.893,342.500 50.952 C 342.751 51.017,342.833 51.179,342.833 51.607 L 342.833 52.175 345.542 52.129 L 348.250 52.083 348.302 51.542 C 348.335 51.206,348.446 51.000,348.594 51.000 C 348.948 51.000,348.955 30.920,348.601 30.717 C 348.437 30.623,348.351 30.146,348.309 29.113 C 348.261 27.926,348.194 27.612,347.958 27.480 C 347.783 27.382,347.667 27.120,347.667 26.825 C 347.667 26.499,347.582 26.333,347.417 26.333 C 347.242 26.333,347.167 26.157,347.167 25.750 C 347.167 25.343,347.091 25.167,346.917 25.167 C 346.779 25.167,346.667 25.054,346.667 24.917 C 346.667 24.778,346.519 24.667,346.333 24.667 C 346.086 24.667,346.000 24.556,346.000 24.236 C 346.000 23.910,345.878 23.758,345.500 23.616 C 345.225 23.512,345.000 23.331,345.000 23.213 C 345.000 23.096,344.850 23.000,344.667 23.000 C 344.444 23.000,344.333 22.889,344.333 22.667 C 344.333 22.407,344.222 22.333,343.833 22.333 C 343.500 22.333,343.333 22.250,343.333 22.083 C 343.333 21.909,343.157 21.833,342.750 21.833 C 342.343 21.833,342.167 21.758,342.167 21.583 C 342.167 21.387,341.935 21.333,341.083 21.333 C 340.268 21.333,340.000 21.276,340.000 21.101 C 340.000 20.510,332.779 20.415,332.250 21.000 M367.958 20.782 C 367.798 20.823,367.667 20.965,367.667 21.096 C 367.667 21.270,367.444 21.333,366.833 21.333 C 366.204 21.333,366.000 21.394,366.000 21.583 C 366.000 21.751,365.833 21.833,365.495 21.833 C 365.217 21.833,364.950 21.937,364.901 22.065 C 364.852 22.192,364.592 22.340,364.323 22.394 C 364.038 22.451,363.833 22.598,363.833 22.746 C 363.833 22.889,363.688 23.000,363.500 23.000 C 363.315 23.000,363.167 23.111,363.167 23.250 C 363.167 23.387,363.054 23.500,362.917 23.500 C 362.779 23.500,362.667 23.613,362.667 23.750 C 362.667 23.887,362.554 24.000,362.417 24.000 C 362.222 24.000,362.167 23.776,362.167 22.984 C 362.167 22.109,362.121 21.957,361.833 21.882 C 361.650 21.834,361.500 21.691,361.500 21.564 C 361.500 21.378,361.030 21.333,359.083 21.333 C 357.583 21.333,356.667 21.397,356.667 21.500 C 356.667 21.592,356.517 21.817,356.333 22.000 C 356.004 22.330,356.000 22.556,356.000 42.432 C 356.000 62.391,356.002 62.532,356.333 62.618 C 356.517 62.666,356.667 62.811,356.667 62.940 C 356.667 63.134,357.136 63.167,359.375 63.129 L 362.083 63.083 362.139 62.591 C 362.170 62.320,362.301 61.947,362.431 61.762 C 362.623 61.488,362.668 60.355,362.672 55.671 C 362.675 51.680,362.729 50.006,362.847 50.208 C 362.940 50.369,363.200 50.500,363.425 50.500 C 363.677 50.500,363.833 50.596,363.833 50.750 C 363.833 50.887,363.928 51.000,364.043 51.000 C 364.159 51.000,364.347 51.150,364.461 51.333 C 364.579 51.522,364.850 51.667,365.085 51.667 C 365.343 51.667,365.500 51.761,365.500 51.917 C 365.500 52.106,365.704 52.167,366.333 52.167 C 366.963 52.167,367.167 52.228,367.167 52.417 C 367.167 52.622,367.461 52.667,368.820 52.667 C 370.080 52.667,370.592 52.735,370.974 52.954 C 371.448 53.226,371.491 53.226,371.792 52.954 C 372.046 52.724,372.429 52.667,373.710 52.667 C 374.910 52.667,375.372 52.604,375.560 52.417 C 375.697 52.279,376.045 52.167,376.333 52.167 C 376.621 52.167,376.970 52.054,377.107 51.917 C 377.245 51.779,377.509 51.667,377.694 51.667 C 377.891 51.667,378.067 51.528,378.118 51.333 C 378.180 51.096,378.346 51.000,378.691 51.000 C 378.969 51.000,379.218 50.893,379.273 50.750 C 379.326 50.612,379.473 50.500,379.601 50.500 C 379.729 50.500,379.833 50.387,379.833 50.250 C 379.833 50.112,379.946 50.000,380.083 50.000 C 380.222 50.000,380.333 49.852,380.333 49.667 C 380.333 49.481,380.444 49.333,380.583 49.333 C 380.721 49.333,380.833 49.221,380.833 49.083 C 380.833 48.946,380.948 48.833,381.087 48.833 C 381.235 48.833,381.383 48.629,381.440 48.344 C 381.493 48.075,381.641 47.815,381.769 47.766 C 381.896 47.717,382.000 47.533,382.000 47.356 C 382.000 47.180,382.113 46.992,382.250 46.940 C 382.415 46.876,382.500 46.615,382.500 46.172 C 382.500 45.611,382.555 45.500,382.833 45.500 C 383.122 45.500,383.167 45.389,383.167 44.667 C 383.167 44.037,383.228 43.833,383.417 43.833 C 383.615 43.833,383.667 43.595,383.667 42.684 C 383.667 41.817,383.728 41.512,383.917 41.440 C 384.130 41.358,384.167 40.689,384.167 36.839 C 384.167 32.945,384.133 32.333,383.917 32.333 C 383.716 32.333,383.667 32.076,383.667 31.018 C 383.667 30.002,383.610 29.680,383.417 29.606 C 383.252 29.543,383.167 29.283,383.167 28.844 C 383.167 28.349,383.081 28.133,382.833 28.000 C 382.615 27.883,382.500 27.651,382.500 27.327 C 382.500 26.999,382.416 26.833,382.250 26.833 C 382.083 26.833,382.000 26.666,382.000 26.328 C 382.000 26.033,381.896 25.783,381.750 25.727 C 381.613 25.674,381.500 25.527,381.500 25.399 C 381.500 25.271,381.350 25.167,381.167 25.167 C 380.935 25.167,380.833 25.056,380.833 24.803 C 380.833 24.366,379.427 23.000,378.977 23.000 C 378.778 23.000,378.667 22.881,378.667 22.667 C 378.667 22.475,378.556 22.333,378.405 22.333 C 378.261 22.333,378.030 22.221,377.893 22.083 C 377.755 21.946,377.507 21.833,377.342 21.833 C 377.176 21.833,376.947 21.721,376.833 21.583 C 376.697 21.419,376.325 21.333,375.749 21.333 C 375.012 21.333,374.858 21.280,374.785 21.000 C 374.701 20.679,369.045 20.498,367.958 20.782 M181.167 21.583 C 181.167 21.721,181.054 21.833,180.917 21.833 C 180.779 21.833,180.667 21.975,180.667 22.149 C 180.667 22.322,180.554 22.508,180.417 22.560 C 180.037 22.706,180.037 51.000,180.417 51.000 C 180.591 51.000,180.667 51.176,180.667 51.583 L 180.667 52.167 183.417 52.167 C 185.750 52.167,186.167 52.129,186.167 51.917 C 186.167 51.779,186.279 51.667,186.417 51.667 C 186.636 51.667,186.667 50.444,186.667 41.667 C 186.667 33.230,186.703 31.667,186.899 31.667 C 187.177 31.667,187.333 31.308,187.333 30.671 C 187.333 30.408,187.443 30.160,187.583 30.106 C 187.721 30.054,187.833 29.896,187.833 29.755 C 187.833 29.615,187.946 29.500,188.083 29.500 C 188.221 29.500,188.333 29.425,188.333 29.333 C 188.333 29.116,188.865 28.587,189.221 28.451 C 189.374 28.392,189.500 28.229,189.500 28.089 C 189.500 27.915,189.663 27.833,190.005 27.833 C 190.301 27.833,190.550 27.729,190.606 27.583 C 190.687 27.374,191.185 27.333,193.667 27.333 C 196.148 27.333,196.647 27.293,196.727 27.083 C 196.780 26.946,197.015 26.833,197.250 26.833 C 197.505 26.833,197.720 26.716,197.784 26.542 C 197.843 26.381,197.991 26.190,198.112 26.117 C 198.437 25.921,198.426 22.569,198.099 22.383 C 197.971 22.310,197.839 22.063,197.808 21.833 L 197.750 21.417 194.398 21.372 C 191.564 21.334,191.014 21.366,190.836 21.580 C 190.716 21.724,190.357 21.833,190.000 21.833 C 189.647 21.833,189.284 21.942,189.167 22.083 C 189.053 22.221,188.857 22.333,188.731 22.333 C 188.606 22.333,188.409 22.483,188.295 22.667 C 188.180 22.850,187.917 23.000,187.710 23.000 C 187.486 23.000,187.333 23.102,187.333 23.250 C 187.333 23.387,187.226 23.500,187.096 23.500 C 186.965 23.500,186.823 23.631,186.782 23.792 C 186.740 23.952,186.697 23.735,186.686 23.309 C 186.673 22.789,186.585 22.504,186.417 22.440 C 186.279 22.387,186.167 22.234,186.167 22.100 C 186.167 21.457,185.721 21.333,183.405 21.333 C 181.526 21.333,181.167 21.374,181.167 21.583 M243.394 25.917 C 243.467 26.108,243.781 26.167,244.725 26.167 C 245.821 26.167,245.971 26.204,246.048 26.500 C 246.107 26.725,246.276 26.833,246.568 26.833 C 246.841 26.833,247.000 26.925,247.000 27.083 C 247.000 27.222,247.148 27.333,247.333 27.333 C 247.519 27.333,247.667 27.444,247.667 27.583 C 247.667 27.721,247.779 27.833,247.917 27.833 C 248.054 27.833,248.167 27.917,248.167 28.018 C 248.167 28.274,248.871 28.994,249.125 28.997 C 249.243 28.999,249.333 29.209,249.333 29.482 C 249.333 29.757,249.441 30.006,249.583 30.060 C 249.729 30.116,249.833 30.366,249.833 30.661 C 249.833 30.999,249.916 31.167,250.083 31.167 C 250.286 31.167,250.333 31.435,250.333 32.583 L 250.333 34.000 242.833 34.000 L 235.333 34.000 235.333 33.500 C 235.333 33.222,235.481 32.852,235.667 32.667 C 235.911 32.422,236.000 32.111,236.000 31.500 C 236.000 30.870,236.061 30.667,236.250 30.667 C 236.425 30.667,236.500 30.491,236.500 30.083 C 236.500 29.676,236.575 29.500,236.750 29.500 C 236.887 29.500,237.000 29.404,237.000 29.287 C 237.000 29.170,237.150 28.946,237.333 28.789 C 237.517 28.632,237.667 28.353,237.667 28.168 C 237.667 27.984,237.771 27.833,237.899 27.833 C 238.027 27.833,238.174 27.721,238.227 27.583 C 238.280 27.446,238.513 27.333,238.745 27.333 C 238.977 27.333,239.167 27.259,239.167 27.169 C 239.167 27.078,239.429 26.895,239.750 26.761 C 240.071 26.627,240.333 26.438,240.333 26.342 C 240.333 26.237,240.770 26.167,241.417 26.167 C 242.269 26.167,242.500 26.113,242.500 25.917 C 242.500 25.764,242.655 25.667,242.899 25.667 C 243.118 25.667,243.341 25.779,243.394 25.917 M372.215 26.500 C 372.286 26.772,372.442 26.833,373.068 26.833 C 373.637 26.833,373.833 26.897,373.833 27.083 C 373.833 27.221,373.946 27.333,374.083 27.333 C 374.221 27.333,374.333 27.446,374.333 27.583 C 374.333 27.721,374.420 27.833,374.526 27.833 C 374.753 27.833,376.000 29.108,376.000 29.340 C 376.000 29.428,376.113 29.500,376.250 29.500 C 376.417 29.500,376.500 29.667,376.500 30.005 C 376.500 30.301,376.604 30.550,376.750 30.606 C 376.903 30.665,377.000 30.917,377.000 31.254 C 377.000 31.971,377.146 32.333,377.434 32.333 C 377.627 32.333,377.667 33.086,377.667 36.750 C 377.667 40.399,377.627 41.167,377.436 41.167 C 377.186 41.167,377.006 41.660,377.002 42.357 C 377.001 42.599,376.887 42.841,376.750 42.894 C 376.604 42.950,376.500 43.199,376.500 43.495 C 376.500 43.833,376.417 44.000,376.250 44.000 C 376.083 44.000,376.000 44.167,376.000 44.500 C 376.000 44.787,375.911 45.001,375.792 45.003 C 375.538 45.006,374.833 45.726,374.833 45.982 C 374.833 46.083,374.693 46.167,374.520 46.167 C 374.348 46.167,374.114 46.279,374.000 46.417 C 373.886 46.554,373.666 46.667,373.511 46.667 C 373.357 46.667,373.085 46.777,372.907 46.911 C 372.427 47.274,367.745 47.279,367.606 46.917 C 367.550 46.771,367.301 46.667,367.005 46.667 C 366.667 46.667,366.500 46.584,366.500 46.417 C 366.500 46.252,366.335 46.167,366.019 46.167 C 365.679 46.167,365.513 46.069,365.452 45.833 C 365.404 45.650,365.245 45.500,365.099 45.500 C 364.953 45.500,364.833 45.387,364.833 45.250 C 364.833 45.112,364.721 45.000,364.583 45.000 C 364.446 45.000,364.333 44.855,364.333 44.679 C 364.333 44.502,364.235 44.258,364.116 44.137 C 363.996 44.016,363.848 43.785,363.788 43.625 C 363.727 43.465,363.562 43.333,363.422 43.333 C 363.235 43.333,363.167 43.154,363.167 42.661 C 363.167 42.218,363.082 41.957,362.917 41.894 C 362.723 41.819,362.667 41.496,362.667 40.470 C 362.667 39.513,362.597 39.073,362.417 38.893 C 362.228 38.704,362.167 38.238,362.167 37.000 C 362.167 35.762,362.228 35.296,362.417 35.107 C 362.604 34.920,362.667 34.458,362.667 33.262 C 362.667 31.955,362.712 31.667,362.917 31.667 C 363.083 31.667,363.167 31.500,363.167 31.167 C 363.167 30.850,363.252 30.667,363.399 30.667 C 363.654 30.667,363.833 30.316,363.833 29.820 C 363.833 29.644,363.946 29.500,364.083 29.500 C 364.221 29.500,364.333 29.396,364.333 29.268 C 364.333 29.140,364.446 28.992,364.583 28.940 C 364.721 28.887,364.833 28.729,364.833 28.589 C 364.833 28.448,364.946 28.333,365.083 28.333 C 365.221 28.333,365.333 28.221,365.333 28.083 C 365.333 27.946,365.448 27.833,365.589 27.833 C 365.729 27.833,365.887 27.721,365.940 27.583 C 365.992 27.446,366.131 27.333,366.247 27.333 C 366.364 27.333,366.553 27.221,366.667 27.083 C 366.781 26.946,367.134 26.833,367.453 26.833 C 367.891 26.833,368.052 26.753,368.118 26.500 C 368.199 26.190,368.346 26.167,370.167 26.167 C 371.988 26.167,372.134 26.190,372.215 26.500 M166.593 39.156 C 166.400 39.369,166.333 39.811,166.333 40.869 C 166.333 42.154,166.301 42.303,166.000 42.382 C 165.773 42.441,165.667 42.609,165.667 42.906 C 165.667 43.147,165.554 43.387,165.417 43.440 C 165.274 43.494,165.167 43.743,165.167 44.018 C 165.167 44.335,165.081 44.500,164.917 44.500 C 164.779 44.500,164.667 44.612,164.667 44.750 C 164.667 44.887,164.596 45.000,164.509 45.000 C 164.279 45.000,163.500 45.755,163.500 45.977 C 163.500 46.082,163.387 46.167,163.250 46.167 C 163.112 46.167,163.000 46.279,163.000 46.417 C 163.000 46.584,162.833 46.667,162.495 46.667 C 162.199 46.667,161.950 46.771,161.894 46.917 C 161.835 47.069,161.583 47.167,161.246 47.167 C 160.529 47.167,160.167 47.312,160.167 47.601 C 160.167 47.784,159.813 47.833,158.500 47.833 C 157.187 47.833,156.833 47.784,156.833 47.601 C 156.833 47.310,156.471 47.167,155.736 47.167 C 155.341 47.167,155.167 47.090,155.167 46.917 C 155.167 46.742,154.991 46.667,154.583 46.667 C 154.176 46.667,154.000 46.591,154.000 46.417 C 154.000 46.279,153.887 46.167,153.750 46.167 C 153.611 46.167,153.500 46.019,153.500 45.833 C 153.500 45.648,153.389 45.500,153.250 45.500 C 153.094 45.500,153.000 45.342,153.000 45.078 C 153.000 44.846,152.887 44.613,152.750 44.560 C 152.561 44.488,152.500 44.183,152.500 43.316 C 152.500 42.405,152.552 42.167,152.750 42.167 C 152.887 42.167,153.000 42.089,153.000 41.994 C 153.000 41.900,153.225 41.602,153.500 41.333 C 153.775 41.065,154.000 40.767,154.000 40.672 C 154.000 40.578,154.150 40.500,154.333 40.500 C 154.519 40.500,154.667 40.389,154.667 40.250 C 154.667 40.083,154.833 40.000,155.167 40.000 C 155.500 40.000,155.667 39.917,155.667 39.750 C 155.667 39.575,155.843 39.500,156.250 39.500 C 156.657 39.500,156.833 39.425,156.833 39.250 C 156.833 39.056,157.053 39.000,157.811 39.000 C 158.536 39.000,158.898 38.914,159.212 38.667 C 159.569 38.386,159.888 38.333,161.235 38.333 C 162.545 38.333,162.833 38.288,162.833 38.083 C 162.833 37.877,163.138 37.833,164.577 37.833 C 165.852 37.833,166.378 37.771,166.535 37.601 C 166.713 37.409,166.759 37.497,166.802 38.119 C 166.836 38.624,166.768 38.962,166.593 39.156 M341.923 41.207 C 341.754 41.301,341.667 41.596,341.667 42.074 C 341.667 42.563,341.586 42.829,341.417 42.894 C 341.271 42.950,341.167 43.199,341.167 43.495 C 341.167 43.784,341.078 44.003,340.958 44.007 C 340.748 44.014,340.000 45.058,340.000 45.345 C 340.000 45.430,339.906 45.500,339.790 45.500 C 339.675 45.500,339.487 45.650,339.372 45.833 C 339.258 46.017,339.012 46.167,338.827 46.167 C 338.641 46.167,338.446 46.279,338.394 46.417 C 338.341 46.554,338.161 46.667,337.994 46.667 C 337.827 46.667,337.578 46.779,337.440 46.917 C 337.303 47.054,336.960 47.167,336.679 47.167 C 336.389 47.167,336.022 47.311,335.833 47.500 C 335.412 47.921,332.667 48.010,332.667 47.603 C 332.667 47.364,332.180 47.173,331.562 47.169 C 331.367 47.168,331.114 47.054,331.000 46.917 C 330.886 46.779,330.614 46.667,330.396 46.667 C 330.178 46.667,330.000 46.589,330.000 46.495 C 330.000 46.400,329.872 46.274,329.716 46.214 C 329.239 46.031,328.833 45.609,328.833 45.296 C 328.833 45.133,328.721 45.000,328.583 45.000 C 328.378 45.000,328.333 44.704,328.333 43.333 C 328.333 41.963,328.378 41.667,328.583 41.667 C 328.721 41.667,328.833 41.554,328.833 41.417 C 328.833 41.278,328.981 41.167,329.167 41.167 C 329.389 41.167,329.500 41.056,329.500 40.833 C 329.500 40.648,329.611 40.500,329.750 40.500 C 329.887 40.500,330.000 40.387,330.000 40.250 C 330.000 40.075,330.176 40.000,330.583 40.000 C 330.991 40.000,331.167 39.925,331.167 39.750 C 331.167 39.566,331.359 39.500,331.899 39.500 C 332.396 39.500,332.662 39.420,332.727 39.250 C 332.791 39.082,333.057 38.999,333.536 38.998 C 334.491 38.995,335.000 38.844,335.000 38.564 C 335.000 38.383,335.356 38.333,336.649 38.333 C 337.944 38.333,338.318 38.281,338.391 38.089 C 338.464 37.900,338.889 37.834,340.284 37.797 L 342.083 37.750 342.131 39.407 C 342.170 40.758,342.132 41.090,341.923 41.207 " stroke="none" fill="#343434" fill-rule="evenodd"></path><path id="path2" d="M33.083 14.013 C 29.340 14.433,25.926 15.919,23.743 18.080 C 23.228 18.589,21.757 20.517,21.450 21.083 C 20.874 22.149,20.153 23.865,20.066 24.378 C 20.016 24.674,19.866 25.179,19.734 25.500 C 18.667 28.087,18.659 42.793,19.723 45.740 C 19.858 46.112,20.013 46.675,20.069 46.991 C 20.489 49.351,23.896 53.913,26.049 54.997 C 26.435 55.191,26.863 55.417,27.000 55.500 C 30.744 57.755,39.259 57.954,44.000 55.898 C 46.843 54.665,50.833 51.272,50.833 50.088 C 50.833 50.042,51.066 49.535,51.349 48.961 C 52.169 47.302,52.797 44.364,52.499 43.580 C 52.300 43.058,51.513 42.833,49.886 42.833 C 47.642 42.833,46.912 43.399,46.553 45.417 C 46.463 45.923,45.426 48.217,45.096 48.639 C 42.711 51.689,37.033 53.405,33.103 52.263 C 32.606 52.118,32.066 52.000,31.903 52.000 C 30.226 52.000,26.000 48.282,26.000 46.807 C 26.000 46.679,25.897 46.426,25.771 46.245 C 25.646 46.065,25.463 45.579,25.365 45.167 C 25.267 44.754,25.095 44.079,24.981 43.667 C 24.832 43.124,24.773 40.909,24.770 35.667 C 24.766 27.115,24.795 26.893,26.360 23.595 C 29.326 17.343,41.608 16.906,45.275 22.922 C 45.951 24.032,46.422 25.116,46.569 25.901 C 46.635 26.253,46.759 26.663,46.845 26.812 C 46.930 26.961,47.072 27.287,47.161 27.537 C 47.591 28.751,52.062 28.903,52.512 27.720 C 52.861 26.801,52.192 24.026,51.061 21.704 C 49.872 19.263,45.766 15.500,44.291 15.500 C 44.172 15.500,43.926 15.401,43.745 15.281 C 43.349 15.017,41.759 14.545,40.500 14.318 C 39.996 14.227,39.246 14.085,38.833 14.003 C 37.938 13.824,34.716 13.830,33.083 14.013 " stroke="none" fill="#f6f9fb" fill-rule="evenodd"></path><path id="path3" d="M31.917 13.845 C 31.642 13.925,30.967 14.095,30.417 14.224 C 28.953 14.567,27.667 15.017,27.667 15.186 C 27.667 15.267,27.560 15.333,27.430 15.333 C 27.060 15.333,25.613 16.107,25.107 16.576 C 24.855 16.809,24.608 17.000,24.557 17.000 C 24.179 17.000,21.418 20.310,21.082 21.167 C 21.028 21.304,20.837 21.694,20.658 22.033 C 20.480 22.372,20.333 22.734,20.333 22.837 C 20.333 22.940,20.221 23.136,20.083 23.274 C 19.946 23.411,19.833 23.704,19.833 23.925 C 19.833 24.146,19.724 24.609,19.590 24.955 C 19.457 25.301,19.263 26.146,19.160 26.833 C 19.057 27.521,18.909 28.458,18.832 28.917 C 18.649 30.001,18.649 41.332,18.832 42.417 C 18.909 42.875,19.057 43.813,19.161 44.500 C 19.265 45.188,19.459 45.986,19.592 46.275 C 19.725 46.564,19.833 46.965,19.833 47.166 C 19.833 47.367,19.935 47.731,20.059 47.974 C 20.184 48.218,20.568 48.979,20.914 49.667 C 22.735 53.292,27.505 57.000,30.348 57.000 C 30.624 57.000,31.085 57.122,31.373 57.270 C 32.136 57.665,39.188 57.666,40.417 57.271 C 40.875 57.124,41.438 57.002,41.667 57.001 C 41.896 56.999,42.298 56.886,42.561 56.749 C 42.823 56.612,43.115 56.500,43.209 56.500 C 43.368 56.500,44.598 55.970,45.167 55.656 C 45.304 55.580,45.774 55.325,46.210 55.090 C 48.036 54.104,50.771 51.306,51.060 50.125 C 51.122 49.873,51.247 49.667,51.337 49.667 C 51.426 49.667,51.503 49.573,51.506 49.458 C 51.509 49.344,51.656 48.950,51.833 48.583 C 52.010 48.217,52.158 47.834,52.161 47.734 C 52.164 47.633,52.271 47.333,52.398 47.067 C 52.655 46.529,52.894 44.049,52.746 43.459 C 52.501 42.483,48.952 42.048,47.625 42.831 C 47.046 43.172,46.333 44.478,46.333 45.198 C 46.333 45.520,45.323 47.731,44.789 48.575 C 44.091 49.680,41.796 51.333,40.960 51.333 C 40.835 51.333,40.644 51.423,40.534 51.533 C 40.424 51.643,39.940 51.787,39.459 51.853 C 38.977 51.919,38.009 52.065,37.306 52.177 C 36.329 52.332,35.722 52.336,34.723 52.191 C 32.212 51.826,31.551 51.701,31.235 51.531 C 31.060 51.437,30.582 51.197,30.173 50.998 C 28.644 50.252,26.969 48.548,26.589 47.352 C 26.528 47.159,26.408 47.000,26.322 47.000 C 26.237 47.000,26.167 46.880,26.167 46.734 C 26.167 46.587,26.066 46.231,25.944 45.942 C 25.158 44.093,25.095 43.406,25.038 36.057 C 24.987 29.439,25.003 28.949,25.325 27.618 C 25.513 26.840,25.667 26.090,25.667 25.949 C 25.667 25.809,25.775 25.481,25.907 25.222 C 26.039 24.962,26.285 24.450,26.454 24.083 C 26.788 23.356,27.292 22.543,27.623 22.196 C 27.739 22.075,27.833 21.907,27.833 21.821 C 27.833 21.736,27.911 21.667,28.006 21.667 C 28.100 21.667,28.382 21.460,28.631 21.208 C 28.880 20.956,29.271 20.657,29.500 20.543 C 29.729 20.429,30.029 20.271,30.167 20.192 C 30.832 19.810,31.653 19.518,32.325 19.423 C 32.733 19.366,33.160 19.241,33.275 19.146 C 33.542 18.924,38.032 18.916,38.444 19.137 C 38.612 19.227,39.125 19.351,39.583 19.413 C 40.328 19.513,41.102 19.780,41.833 20.189 C 41.971 20.265,42.308 20.434,42.583 20.563 C 43.970 21.215,46.318 24.642,46.339 26.045 C 46.342 26.250,46.490 26.717,46.667 27.083 C 46.844 27.450,46.991 27.830,46.994 27.929 C 47.020 28.750,50.680 29.173,51.987 28.507 C 52.773 28.105,52.875 27.760,52.733 25.956 C 52.630 24.636,52.516 24.234,51.818 22.732 C 51.643 22.355,51.500 21.970,51.500 21.877 C 51.500 21.784,51.387 21.614,51.250 21.500 C 51.112 21.386,51.000 21.182,51.000 21.048 C 51.000 20.913,50.869 20.631,50.708 20.421 C 50.548 20.210,50.304 19.861,50.167 19.644 C 49.857 19.156,48.450 17.747,47.629 17.103 C 47.013 16.619,46.603 16.361,45.833 15.967 C 45.604 15.850,45.318 15.659,45.196 15.544 C 45.075 15.428,44.850 15.331,44.696 15.328 C 44.543 15.325,44.271 15.213,44.093 15.078 C 43.915 14.943,43.664 14.833,43.535 14.833 C 43.406 14.833,43.064 14.731,42.775 14.606 C 42.486 14.481,41.837 14.291,41.333 14.184 C 40.829 14.078,40.117 13.921,39.750 13.836 C 38.915 13.642,32.592 13.650,31.917 13.845 M38.833 14.003 C 39.246 14.085,39.996 14.227,40.500 14.318 C 41.759 14.545,43.349 15.017,43.745 15.281 C 43.926 15.401,44.172 15.500,44.291 15.500 C 45.766 15.500,49.872 19.263,51.061 21.704 C 52.192 24.026,52.861 26.801,52.512 27.720 C 52.062 28.903,47.591 28.751,47.161 27.537 C 47.072 27.287,46.930 26.961,46.845 26.812 C 46.759 26.663,46.635 26.253,46.569 25.901 C 46.422 25.116,45.951 24.032,45.275 22.922 C 41.608 16.906,29.326 17.343,26.360 23.595 C 24.795 26.893,24.766 27.115,24.770 35.667 C 24.773 40.909,24.832 43.124,24.981 43.667 C 25.095 44.079,25.267 44.754,25.365 45.167 C 25.463 45.579,25.646 46.065,25.771 46.245 C 25.897 46.426,26.000 46.679,26.000 46.807 C 26.000 48.282,30.226 52.000,31.903 52.000 C 32.066 52.000,32.606 52.118,33.103 52.263 C 37.033 53.405,42.711 51.689,45.096 48.639 C 45.426 48.217,46.463 45.923,46.553 45.417 C 46.912 43.399,47.642 42.833,49.886 42.833 C 51.513 42.833,52.300 43.058,52.499 43.580 C 52.797 44.364,52.169 47.302,51.349 48.961 C 51.066 49.535,50.833 50.042,50.833 50.088 C 50.833 51.272,46.843 54.665,44.000 55.898 C 39.259 57.954,30.744 57.755,27.000 55.500 C 26.863 55.417,26.435 55.191,26.049 54.997 C 23.896 53.913,20.489 49.351,20.069 46.991 C 20.013 46.675,19.858 46.112,19.723 45.740 C 18.659 42.793,18.667 28.087,19.734 25.500 C 19.866 25.179,20.016 24.674,20.066 24.378 C 20.116 24.082,20.387 23.332,20.668 22.712 C 23.417 16.646,28.181 13.928,36.167 13.868 C 37.221 13.860,38.421 13.920,38.833 14.003 " stroke="none" fill="#59b6f4" fill-rule="evenodd"></path><path id="path4" d="M31.167 13.934 C 30.890 14.104,30.862 14.151,31.083 14.074 C 31.267 14.011,31.642 13.901,31.917 13.830 C 32.374 13.712,32.381 13.700,32.000 13.690 C 31.771 13.683,31.396 13.794,31.167 13.934 M39.833 13.830 C 40.154 13.899,40.567 14.009,40.750 14.074 C 41.079 14.192,41.079 14.190,40.760 13.930 C 40.582 13.785,40.169 13.675,39.843 13.686 L 39.250 13.705 39.833 13.830 M29.208 14.339 C 29.002 14.421,28.833 14.534,28.833 14.588 C 28.833 14.642,28.907 14.641,28.997 14.585 C 29.088 14.529,29.481 14.420,29.872 14.343 C 30.445 14.230,30.486 14.202,30.083 14.195 C 29.808 14.191,29.415 14.256,29.208 14.339 M41.542 14.282 C 41.702 14.323,41.965 14.323,42.125 14.282 C 42.285 14.240,42.154 14.205,41.833 14.205 C 41.512 14.205,41.381 14.240,41.542 14.282 M25.429 16.095 C 25.032 16.492,25.115 16.595,25.542 16.236 C 25.748 16.062,25.948 15.901,25.986 15.877 C 26.024 15.853,25.973 15.833,25.873 15.833 C 25.773 15.833,25.573 15.951,25.429 16.095 M46.212 16.167 C 46.445 16.350,46.692 16.500,46.760 16.500 C 46.828 16.500,46.711 16.350,46.500 16.167 C 46.289 15.983,46.042 15.833,45.952 15.833 C 45.862 15.833,45.979 15.983,46.212 16.167 M23.387 17.875 C 23.202 18.081,22.990 18.362,22.917 18.500 C 22.776 18.765,22.815 18.729,23.490 17.958 C 23.711 17.706,23.854 17.500,23.808 17.500 C 23.762 17.500,23.573 17.669,23.387 17.875 M33.242 19.150 C 33.155 19.233,32.933 19.343,32.750 19.394 C 32.567 19.445,32.717 19.446,33.083 19.395 C 33.934 19.277,34.438 19.012,33.825 19.005 C 33.591 19.002,33.329 19.068,33.242 19.150 M38.098 19.148 C 38.197 19.257,38.572 19.379,38.931 19.420 C 39.516 19.486,39.531 19.479,39.083 19.351 C 38.808 19.272,38.433 19.150,38.250 19.079 C 37.998 18.982,37.961 18.999,38.098 19.148 M21.860 19.667 C 21.656 19.942,21.517 20.167,21.551 20.167 C 21.584 20.167,21.812 19.942,22.057 19.667 C 22.302 19.392,22.441 19.167,22.366 19.167 C 22.291 19.167,22.063 19.392,21.860 19.667 M40.574 19.755 C 40.751 19.890,40.972 20.000,41.064 20.000 C 41.155 20.000,41.085 19.890,40.907 19.755 C 40.729 19.621,40.508 19.511,40.417 19.511 C 40.325 19.511,40.396 19.621,40.574 19.755 M29.857 20.339 C 29.340 20.769,29.573 20.764,30.121 20.333 C 30.354 20.150,30.479 20.002,30.397 20.006 C 30.316 20.009,30.073 20.159,29.857 20.339 M51.013 21.021 C 51.006 21.170,51.112 21.386,51.250 21.500 C 51.387 21.614,51.506 21.830,51.513 21.979 C 51.522 22.166,51.553 22.182,51.614 22.032 C 51.662 21.912,51.590 21.687,51.456 21.532 C 51.321 21.377,51.169 21.137,51.118 21.000 C 51.041 20.791,51.024 20.794,51.013 21.021 M20.391 22.091 C 20.241 22.481,20.403 22.527,20.633 22.159 C 20.761 21.953,20.773 21.833,20.663 21.833 C 20.568 21.833,20.445 21.949,20.391 22.091 M27.576 22.225 C 27.196 22.643,27.144 22.894,27.509 22.546 C 27.723 22.343,27.865 22.144,27.824 22.105 C 27.783 22.066,27.672 22.120,27.576 22.225 M52.389 24.071 C 52.494 24.294,52.606 24.449,52.638 24.417 C 52.742 24.314,52.483 23.667,52.338 23.667 C 52.261 23.667,52.284 23.849,52.389 24.071 M45.344 23.917 C 45.344 24.008,45.454 24.229,45.589 24.407 C 45.723 24.585,45.833 24.655,45.833 24.564 C 45.833 24.472,45.723 24.251,45.589 24.074 C 45.454 23.896,45.344 23.825,45.344 23.917 M45.833 25.035 C 45.833 25.177,45.958 25.395,46.111 25.521 C 46.364 25.730,46.369 25.714,46.171 25.333 C 45.881 24.775,45.833 24.733,45.833 25.035 M25.857 25.357 C 25.740 25.545,25.680 25.736,25.725 25.781 C 25.770 25.825,25.893 25.699,26.000 25.500 C 26.107 25.301,26.166 25.110,26.132 25.077 C 26.098 25.043,25.975 25.169,25.857 25.357 M52.709 25.750 C 52.711 26.117,52.745 26.247,52.785 26.040 C 52.824 25.832,52.823 25.532,52.781 25.373 C 52.739 25.214,52.707 25.383,52.709 25.750 M25.463 27.000 C 25.399 27.321,25.302 27.771,25.247 28.000 C 25.183 28.272,25.241 28.216,25.415 27.838 C 25.562 27.520,25.659 27.070,25.630 26.838 C 25.586 26.472,25.564 26.493,25.463 27.000 M46.334 26.676 C 46.334 26.819,46.443 27.082,46.578 27.260 C 46.896 27.681,46.900 27.498,46.584 26.894 C 46.447 26.631,46.335 26.534,46.334 26.676 M52.845 27.028 C 52.838 27.273,52.787 27.610,52.729 27.778 C 52.656 27.995,52.710 27.971,52.915 27.694 C 53.140 27.392,53.166 27.225,53.031 26.944 C 52.862 26.595,52.856 26.598,52.845 27.028 M18.921 27.160 C 18.867 27.248,18.791 27.829,18.753 28.452 C 18.694 29.411,18.704 29.469,18.820 28.833 C 18.895 28.421,19.013 27.840,19.083 27.542 C 19.204 27.018,19.124 26.830,18.921 27.160 M47.500 28.504 C 47.500 28.649,48.147 28.909,48.250 28.805 C 48.283 28.773,48.127 28.661,47.905 28.556 C 47.682 28.451,47.500 28.428,47.500 28.504 M51.833 28.583 C 51.547 28.747,51.501 28.823,51.688 28.827 C 51.837 28.831,52.053 28.721,52.167 28.583 C 52.420 28.278,52.368 28.278,51.833 28.583 M25.069 31.500 C 25.069 33.104,25.094 33.760,25.124 32.958 C 25.155 32.156,25.155 30.844,25.124 30.042 C 25.094 29.240,25.069 29.896,25.069 31.500 M25.068 39.750 C 25.068 41.308,25.093 41.968,25.124 41.217 C 25.155 40.465,25.155 39.190,25.124 38.383 C 25.094 37.577,25.068 38.192,25.068 39.750 M18.742 42.776 C 18.773 43.340,18.887 43.940,18.994 44.109 C 19.155 44.364,19.169 44.317,19.073 43.833 C 19.009 43.512,18.895 42.913,18.821 42.500 C 18.694 41.805,18.689 41.826,18.742 42.776 M47.643 42.685 L 47.250 43.036 47.702 42.768 C 48.268 42.433,51.646 42.379,51.967 42.700 C 52.100 42.834,52.167 42.840,52.167 42.718 C 52.167 42.170,48.252 42.141,47.643 42.685 M25.182 43.000 C 25.176 43.137,25.278 43.587,25.408 44.000 C 25.570 44.514,25.644 44.619,25.643 44.333 C 25.641 43.877,25.198 42.596,25.182 43.000 M52.844 44.175 C 52.854 44.715,52.864 44.726,53.016 44.347 C 53.122 44.080,53.119 43.885,53.005 43.772 C 52.887 43.654,52.837 43.780,52.844 44.175 M52.712 45.500 C 52.712 45.913,52.745 46.081,52.784 45.875 C 52.824 45.669,52.824 45.331,52.784 45.125 C 52.745 44.919,52.712 45.087,52.712 45.500 M25.672 45.356 C 25.669 45.414,25.779 45.677,25.916 45.939 C 26.053 46.202,26.165 46.300,26.166 46.157 C 26.167 45.912,25.683 45.128,25.672 45.356 M46.014 45.808 C 45.741 46.317,45.798 46.458,46.100 46.026 C 46.247 45.817,46.328 45.606,46.281 45.558 C 46.233 45.511,46.113 45.623,46.014 45.808 M52.451 46.917 C 52.386 47.100,52.287 47.362,52.230 47.500 C 52.146 47.702,52.181 47.698,52.413 47.478 C 52.570 47.328,52.670 47.066,52.634 46.895 C 52.574 46.601,52.563 46.602,52.451 46.917 M27.318 48.637 C 27.419 48.827,27.584 49.032,27.684 49.094 C 27.815 49.175,27.814 49.109,27.682 48.863 C 27.581 48.673,27.416 48.468,27.316 48.406 C 27.185 48.325,27.186 48.391,27.318 48.637 M43.639 49.663 C 43.425 49.845,43.063 50.142,42.833 50.324 C 42.604 50.507,42.492 50.658,42.583 50.661 C 42.675 50.664,43.087 50.366,43.500 50.000 C 44.251 49.333,44.371 49.043,43.639 49.663 M28.167 49.555 C 28.167 49.601,28.467 49.876,28.833 50.167 C 29.200 50.457,29.500 50.657,29.500 50.611 C 29.500 50.566,29.200 50.290,28.833 50.000 C 28.467 49.710,28.167 49.509,28.167 49.555 M21.333 50.794 C 21.333 50.985,21.786 51.500,21.954 51.500 C 22.008 51.500,21.910 51.331,21.736 51.125 C 21.562 50.919,21.401 50.719,21.377 50.681 C 21.353 50.642,21.333 50.693,21.333 50.794 M29.926 50.911 C 30.104 51.046,30.325 51.156,30.417 51.156 C 30.508 51.156,30.438 51.046,30.260 50.911 C 30.082 50.777,29.861 50.667,29.770 50.667 C 29.678 50.667,29.749 50.777,29.926 50.911 M31.061 51.418 C 31.665 51.733,31.847 51.730,31.426 51.411 C 31.249 51.277,30.986 51.167,30.843 51.168 C 30.700 51.168,30.798 51.281,31.061 51.418 M40.479 51.458 C 40.280 51.712,40.283 51.725,40.500 51.560 C 40.637 51.455,40.900 51.332,41.083 51.287 C 41.400 51.209,41.399 51.204,41.062 51.186 C 40.867 51.175,40.605 51.298,40.479 51.458 M22.333 52.125 C 22.551 52.423,22.755 52.667,22.787 52.667 C 22.914 52.667,22.501 52.042,22.227 51.820 C 22.047 51.673,22.087 51.790,22.333 52.125 M33.417 52.000 C 33.600 52.079,34.012 52.140,34.333 52.135 L 34.917 52.127 34.417 52.000 C 33.668 51.810,32.973 51.810,33.417 52.000 M37.583 52.000 L 37.083 52.127 37.583 52.135 C 37.858 52.140,38.233 52.079,38.417 52.000 L 38.750 51.857 38.417 51.865 C 38.233 51.869,37.858 51.930,37.583 52.000 M48.667 53.200 C 47.979 53.853,47.581 54.300,47.781 54.193 C 48.292 53.922,50.248 51.958,49.958 52.007 C 49.935 52.011,49.354 52.548,48.667 53.200 M35.458 52.287 C 35.756 52.324,36.244 52.324,36.542 52.287 C 36.840 52.250,36.596 52.220,36.000 52.220 C 35.404 52.220,35.160 52.250,35.458 52.287 M23.000 52.976 C 23.000 53.052,23.150 53.251,23.333 53.417 C 23.517 53.583,23.667 53.648,23.667 53.563 C 23.667 53.477,23.517 53.279,23.333 53.122 C 23.150 52.965,23.000 52.899,23.000 52.976 M24.550 54.393 C 24.807 54.635,25.060 54.833,25.112 54.833 C 25.286 54.833,24.783 54.318,24.430 54.134 C 24.182 54.005,24.216 54.078,24.550 54.393 M26.417 55.667 C 26.692 55.849,27.026 55.998,27.160 55.999 C 27.294 56.000,27.110 55.850,26.750 55.667 C 25.917 55.242,25.776 55.242,26.417 55.667 M45.333 55.583 C 45.219 55.721,44.973 55.833,44.785 55.833 C 44.598 55.833,44.491 55.880,44.548 55.937 C 44.720 56.109,45.457 55.853,45.560 55.585 C 45.682 55.265,45.598 55.264,45.333 55.583 M43.833 56.276 C 43.604 56.397,43.529 56.495,43.667 56.495 C 43.954 56.495,44.446 56.217,44.329 56.120 C 44.285 56.085,44.063 56.155,43.833 56.276 M28.907 56.741 C 29.085 56.883,29.347 56.994,29.490 56.987 C 29.715 56.975,29.716 56.961,29.500 56.881 C 29.363 56.830,29.100 56.719,28.917 56.635 C 28.589 56.484,28.589 56.486,28.907 56.741 M42.500 56.764 C 42.240 56.908,42.181 56.996,42.343 56.998 C 42.486 56.999,42.749 56.890,42.926 56.755 C 43.331 56.449,43.057 56.455,42.500 56.764 M30.977 57.257 C 31.286 57.390,31.586 57.497,31.644 57.494 C 31.861 57.482,30.907 57.012,30.667 57.012 C 30.529 57.013,30.669 57.123,30.977 57.257 M40.667 57.198 C 40.438 57.295,39.575 57.435,38.750 57.508 L 37.250 57.641 38.833 57.589 C 39.806 57.556,40.642 57.435,41.000 57.275 C 41.643 56.986,41.334 56.915,40.667 57.198 M32.542 57.623 C 32.977 57.657,33.690 57.657,34.125 57.623 C 34.560 57.588,34.204 57.560,33.333 57.560 C 32.462 57.560,32.106 57.588,32.542 57.623 " stroke="none" fill="#58b0f0" fill-rule="evenodd"></path></g></svg>